<?xml version="1.0" standalone="no"?>
<!DOCTYPE svg PUBLIC "-//W3C//DTD SVG 1.1//EN" "http://www.w3.org/Graphics/SVG/1.1/DTD/svg11.dtd" >
<svg xmlns="http://www.w3.org/2000/svg" xmlns:xlink="http://www.w3.org/1999/xlink" version="1.1">
<metadata>
Created by FontForge 20251009 at Thu Apr  9 16:35:16 2026
 By Ash
</metadata>
<defs>
<font id="qticons" horiz-adv-x="512" >
  <font-face 
    font-family="qticons"
    font-weight="400"
    font-stretch="normal"
    units-per-em="512"
    panose-1="2 0 5 9 0 0 0 0 0 0"
    ascent="409"
    descent="-103"
    x-height="484"
    cap-height="485"
    bbox="27 25 487 488"
    underline-thickness="0"
    underline-position="0"
    unicode-range="U+0021-E034"
  />
<missing-glyph 
 />
    <glyph glyph-name=".notdef" 
 />
    <glyph glyph-name="qticons-amazon" unicode="a" 
d="M256 484c-126 0 -229 -102 -229 -228s103 -229 229 -229s229 103 229 229s-103 228 -229 228zM256 63c-106 0 -193 87 -193 193s87 193 193 193s193 -87 193 -193s-87 -193 -193 -193zM297 203c-1 -2 -3 -2 -5 -2c-9 0 -12 13 -18 19c-12 -15 -44 -29 -68 -16
c-25 12 -28 55 -8 75c16 15 44 18 70 20c0 14 0 24 -8 29c-9 5 -23 3 -29 -4c-5 -5 -5 -11 -9 -16c-11 2 -24 3 -33 7c5 28 24 41 53 45h18c12 -2 29 -5 38 -16c19 -20 6 -65 10 -95c0 -2 1 -5 1 -8c2 -5 11 -12 10 -18c0 -1 -1 -2 -2 -4zM229 262c-12 -20 8 -45 27 -30
c10 8 13 26 12 44c-17 0 -32 -3 -39 -14zM367 208v-4c-1 -8 -3 -14 -7 -21c-3 -6 -8 -16 -14 -12c-5 2 -1 10 0 14c2 6 4 9 4 16c-9 4 -28 -7 -30 2c-3 13 45 21 47 5zM257 152h-19c-21 2 -38 9 -53 19c-15 9 -29 19 -40 32v1c5 11 16 -1 25 -6c20 -10 41 -20 67 -23
c30 -3 55 3 77 11c8 3 27 15 27 1c0 -5 -11 -12 -15 -14c-20 -12 -42 -18 -69 -21z" />
    <glyph glyph-name="qticons-beatport" unicode="b" 
d="M256 485c-126 0 -229 -103 -229 -229s103 -229 229 -229s229 103 229 229s-103 229 -229 229zM256 63c-106 0 -193 87 -193 193s87 193 193 193s193 -87 193 -193s-87 -193 -193 -193zM357 241c0 56 -45 102 -101 102s-101 -46 -101 -102c0 -26 9 -50 27 -69
c3 -2 7 -3 9 0l11 10c3 2 3 6 0 9c-13 14 -20 32 -20 50c0 41 33 74 74 74s74 -33 74 -74c0 -18 -7 -36 -20 -50c-3 -3 -2 -7 0 -9l11 -10c3 -3 7 -2 9 0c17 19 27 43 27 69zM395 242c0 14 -2 27 -6 40v0v0c-1 4 -4 5 -8 4l-14 -4c-3 -1 -5 -5 -4 -8c3 -10 5 -21 5 -32
c0 -20 -5 -39 -15 -55c-2 -3 -1 -7 2 -9l13 -8c3 -1 7 -1 8 2c13 21 19 45 19 70zM159 187c-10 16 -15 35 -15 55c0 11 2 22 5 32c1 3 -1 7 -4 8l-14 4c-4 1 -7 0 -8 -4c-4 -13 -7 -26 -7 -40c0 -25 7 -49 20 -70v0c1 -2 5 -3 8 -2l13 8c3 2 4 6 2 9z" />
    <glyph glyph-name="qticons-cd" unicode="c" 
d="M256 484c-126 0 -229 -102 -229 -228s103 -229 229 -229s229 103 229 229s-103 228 -229 228zM256 63c-106 0 -193 87 -193 193s87 193 193 193s193 -87 193 -193s-87 -193 -193 -193zM254 378c-67 0 -121 -55 -121 -122s54 -122 121 -122c68 0 122 55 122 122
s-54 122 -122 122zM254 195c-33 0 -60 27 -60 61s27 61 60 61c34 0 61 -27 61 -61s-27 -61 -61 -61zM254 292c-19 0 -36 -16 -36 -36s17 -36 36 -36c20 0 37 16 37 36s-17 36 -37 36zM254 241c-8 0 -15 7 -15 15s7 15 15 15c9 0 16 -7 16 -15s-7 -15 -16 -15z" />
    <glyph glyph-name="qticons-chevron-right" unicode="d" 
d="M256 27c126 0 228 103 228 229s-102 228 -228 228s-229 -102 -229 -228s103 -229 229 -229zM256 449c106 0 193 -87 193 -193c0 -107 -87 -193 -193 -193s-193 86 -193 193c0 106 87 193 193 193zM235 156l100 100l-100 100l-29 -29l71 -71l-71 -71z" />
    <glyph glyph-name="qticons-eq" unicode="e" 
d="M256 484c-126 0 -229 -102 -229 -228s103 -229 229 -229s229 103 229 229s-103 228 -229 228zM256 63c-106 0 -193 87 -193 193s87 193 193 193s193 -87 193 -193s-87 -193 -193 -193zM203 187c0 -15 -12 -27 -27 -27c-14 0 -26 12 -26 27c0 14 12 26 26 26
c15 0 27 -12 27 -26zM274 317c0 -15 -12 -27 -27 -27c-14 0 -26 12 -26 27c0 14 12 26 26 26c15 0 27 -12 27 -26zM238 282v-144h18v144c-3 0 -6 -1 -9 -1s-6 1 -9 1zM256 353v15h-18v-15h9h9zM168 153v-15h17v15c-3 -1 -5 -1 -9 -1c-3 0 -6 0 -8 1zM185 223v145h-17v-145
c2 1 5 1 8 1c4 0 6 0 9 -1zM362 282c0 -15 -12 -26 -26 -26c-15 0 -27 11 -27 26s12 27 27 27c14 0 26 -12 26 -27zM344 317v51h-17v-51h9h8zM327 246v-108h17v108c-2 0 -5 -1 -8 -1s-6 1 -9 1z" />
    <glyph glyph-name="qticons-googleplus" unicode="f" 
d="M256 485c-126 0 -229 -103 -229 -229s103 -229 229 -229s229 103 229 229s-103 229 -229 229zM256 63c-106 0 -193 87 -193 193s87 193 193 193s193 -87 193 -193s-87 -193 -193 -193zM276 363c7 5 11 7 11 7h-74c-15 0 -57 -17 -57 -56c0 -40 43 -48 59 -47
c-9 -11 -1 -21 3 -26c5 -5 4 -6 -2 -6c-5 0 -74 -1 -74 -51c0 -49 91 -53 122 -26c30 27 23 64 0 80c-23 17 -32 25 -17 38s27 23 27 48c0 24 -21 37 -21 37s15 -2 23 2zM264 187c0 -21 -18 -32 -49 -32c-30 0 -47 16 -47 39c0 22 22 34 64 34c12 -9 32 -20 32 -41zM220 276
c-37 0 -54 87 -11 87c34 1 60 -87 11 -87zM342 342v28h-14v-28h-29v-15h29v-28h14v28h28v15h-28z" />
    <glyph glyph-name="qticons-man" unicode="g" 
d="M256 484c-126 0 -229 -102 -229 -228s103 -228 229 -228s229 102 229 228s-103 228 -229 228zM256 63c-106 0 -193 86 -193 193c0 106 87 193 193 193s193 -87 193 -193c0 -107 -87 -193 -193 -193zM256 313c16 0 29 13 29 29s-13 28 -29 28s-29 -12 -29 -28
s13 -29 29 -29zM213 299v-72h14v-85h58v85h14v72h-86z" />
    <glyph glyph-name="qticons-phone" unicode="h" 
d="M256 484c-126 0 -229 -102 -229 -228s103 -229 229 -229s229 103 229 229s-103 228 -229 228zM256 63c-106 0 -193 86 -193 193c0 106 87 193 193 193s193 -87 193 -193c0 -107 -87 -193 -193 -193zM319 142c6 0 51 34 51 38s-51 36 -55 36c-5 0 -20 -17 -24 -19
s-29 -2 -56 26c-28 28 -38 60 -38 65s23 21 24 24c1 4 -31 58 -36 58s-43 -47 -43 -51c0 -3 3 -54 67 -117c63 -64 105 -60 110 -60z" />
    <glyph glyph-name="qticons-resident-advisor" unicode="i" 
d="M258 488c-126 0 -229 -102 -229 -228s103 -229 229 -229s228 103 228 229s-102 228 -228 228zM258 67c-107 0 -193 86 -193 193c0 106 86 193 193 193c106 0 193 -87 193 -193c0 -107 -87 -193 -193 -193zM210 321v0c18 -1 30 -8 40 -17s18 -19 28 -28
c-6 -7 -12 -13 -19 -20l-2 -2c-1 0 -4 3 -5 4l-12 12c-8 8 -15 18 -30 20c-5 1 -10 0 -16 0h-33v-15h29s19 1 26 -3c2 -1 5 -4 7 -6c10 -10 19 -20 29 -29c2 -3 5 -5 8 -7c4 -1 8 -1 14 -1h71c1 1 0 1 -1 2l-53 53l-2 2l3 3c6 6 12 13 19 19l65 -65c4 -4 8 -7 10 -12v-3
c-1 -4 -4 -6 -7 -9l-12 -12s-8 -8 -16 -8h-89c-5 0 -9 -1 -12 0s-6 2 -8 5c-5 3 -9 8 -13 12l-19 19c-4 4 -7 8 -13 9c-3 1 -6 0 -10 0h-57v77h80z" />
    <glyph glyph-name="qticons-space" unicode="j" 
d="M256 485c-126 0 -229 -103 -229 -229s103 -229 229 -229s229 103 229 229s-103 229 -229 229zM256 63c-106 0 -193 87 -193 193s87 193 193 193s193 -87 193 -193s-87 -193 -193 -193zM342 256h-172v29h-28v-58h228v58h-28v-29z" />
    <glyph glyph-name="qticons-whatpeopleplay" unicode="k" 
d="M256 484c-126 0 -229 -102 -229 -228s103 -229 229 -229s229 103 229 229s-103 228 -229 228zM256 63c-106 0 -193 87 -193 193s87 193 193 193s193 -87 193 -193s-87 -193 -193 -193zM264 246l-3 -1c-4 0 -6 -1 -8 -2s-4 -4 -4 -7s1 -5 3 -6c1 -1 3 -2 6 -2s6 1 9 3
s5 6 5 12v6c-1 -1 -2 -1 -3 -2c-1 0 -3 -1 -5 -1zM112 345l-3 -174l292 -4l2 173zM332 297h9l-9 -9h-6zM174 268h-10v-32c0 -3 0 -5 1 -5c0 -1 2 -1 5 -1h2h2v-12h-8c-8 -1 -13 1 -16 4c-2 1 -2 4 -2 8v38h-9v12h9v17h16v-17h10v-12zM231 218h-16v38c0 4 -1 6 -2 8
c-2 3 -4 5 -8 5c-5 0 -8 -2 -10 -5c-2 -2 -3 -7 -3 -12v-33h-17v83h17v-30c2 4 5 7 8 8s6 2 9 2c4 0 8 -1 11 -2s5 -3 7 -6c2 -2 3 -5 4 -7v-12v-37zM322 218h-8c-8 -1 -13 1 -16 4c-1 1 -2 4 -2 8v38h-9c1 -1 1 -3 1 -5v-29v-7c0 -2 1 -3 1 -4c1 -1 2 -2 3 -2v-3h-18
c-1 2 -1 3 -1 4s0 2 -1 4c-2 -3 -4 -5 -7 -6c-4 -2 -8 -3 -12 -3c-6 0 -11 1 -14 4c-4 4 -6 8 -6 14c0 8 3 13 9 17c3 1 8 3 14 4h6c3 1 5 1 7 2s3 2 3 4c0 3 -1 4 -3 5c-1 1 -4 2 -8 2c-3 0 -6 -1 -8 -3c-1 -1 -2 -3 -2 -6h-16c1 6 2 10 5 14c4 5 12 8 22 8
c7 0 13 -1 18 -4c4 -2 6 -4 7 -8v10h9v17h16v-17h10v-12h-10v-32c0 -3 0 -5 1 -5c0 -1 2 -1 6 -1h1h2v-12zM371 222c-4 -4 -11 -6 -21 -6s-17 2 -21 7c-5 4 -7 9 -7 15h16c0 -3 1 -5 2 -6c2 -2 6 -3 11 -3c4 0 6 0 8 1s3 3 3 5c0 1 -1 3 -2 4c-2 1 -8 2 -17 5
c-7 1 -12 4 -15 6c-3 3 -5 6 -5 11c0 6 3 11 7 15c5 4 11 6 19 6s14 -1 19 -4s8 -9 9 -16h-17c0 2 0 3 -1 5c-2 2 -5 3 -10 3c-3 0 -6 -1 -7 -2c-2 -1 -2 -2 -2 -4s0 -3 2 -4s7 -2 17 -4c6 -2 11 -4 14 -7c4 -3 5 -7 5 -12c0 -6 -2 -11 -7 -15z" />
    <glyph glyph-name="qticons-wordpress" unicode="l" 
d="M256 485c-126 0 -229 -103 -229 -229s103 -229 229 -229s229 103 229 229s-103 229 -229 229zM256 63c-106 0 -193 87 -193 193s87 193 193 193c107 0 193 -87 193 -193s-87 -193 -193 -193zM142 256c0 -45 26 -84 64 -103l-54 149c-7 -14 -10 -29 -10 -46zM258 246
l-34 -100c10 -3 21 -4 32 -4c13 0 26 2 38 6c0 1 -1 1 -1 2zM333 262c0 14 -5 24 -9 31c-6 10 -11 18 -11 27c0 11 7 20 19 20h1c-20 19 -47 30 -77 30c-40 0 -75 -20 -95 -51h7c12 0 30 1 30 1c7 0 7 -9 1 -9c0 0 -6 -1 -13 -1l42 -124l25 75l-18 49c-6 0 -12 1 -12 1
c-6 0 -6 9 1 9c0 0 18 -1 30 -1s30 1 30 1c6 0 7 -9 1 -9c0 0 -6 -1 -13 -1l41 -123l11 38c6 15 9 27 9 37zM357 299c0 -12 -2 -25 -9 -41l-35 -101c34 20 57 57 57 99c0 20 -5 39 -14 55c1 -4 1 -8 1 -12z" />
    <glyph glyph-name="qticons-yahoo" unicode="m" 
d="M256 485c-126 0 -229 -103 -229 -229s103 -229 229 -229s229 103 229 229s-103 229 -229 229zM256 63c-106 0 -193 87 -193 193s87 193 193 193s193 -87 193 -193s-87 -193 -193 -193zM323 287c0 0 9 5 15 5h15l5 14h-92l1 -11l5 -2l24 -1s2 -5 -2 -8s-39 -34 -39 -34
l-44 54s1 1 7 1h25v22h-101v-22h19s14 -7 20 -13s51 -53 51 -53v-39s-3 -5 -16 -5s-18 -1 -18 -1v-9h101v6s-3 5 -5 5h-24c-3 0 -4 3 -4 7v34zM345 214l7 -1l18 58l-25 2v-59zM334 185h22l1 20h-23v-20z" />
    <glyph glyph-name="qticons-zoom-out" unicode="o" 
d="M256 485c-126 0 -229 -103 -229 -229s103 -229 229 -229s229 103 229 229s-103 229 -229 229zM256 63c-106 0 -193 87 -193 193s87 193 193 193s193 -87 193 -193s-87 -193 -193 -193zM270 342h72v-72h28v100h-100v-28zM170 270v72h72v28h-100v-100h28zM242 170h-72v72
h-28v-100h100v28zM342 242v-72h-72v-28h100v100h-28zM199 270h114v-28h-114v28z" />
    <glyph glyph-name="qticons-cart" unicode="p" 
d="M256 484c-126 0 -229 -102 -229 -228s103 -229 229 -229s229 103 229 229s-103 228 -229 228zM256 63c-106 0 -193 87 -193 193s87 193 193 193s193 -87 193 -193s-87 -193 -193 -193zM249 164c0 -10 -8 -17 -17 -17c-10 0 -18 7 -18 17c0 9 8 17 18 17c9 0 17 -8 17 -17
zM327 164c0 -10 -7 -17 -17 -17c-9 0 -17 7 -17 17c0 9 8 17 17 17c10 0 17 -8 17 -17zM314 220h-81l-51 106h-56v-26h40l51 -106h113l46 101h-28z" />
    <glyph glyph-name="qticons-cassette" unicode="q" 
d="M256 484c-126 0 -229 -102 -229 -228s103 -229 229 -229s229 103 229 229s-103 228 -229 228zM256 63c-106 0 -193 87 -193 193s87 193 193 193s193 -87 193 -193s-87 -193 -193 -193zM359 325h-204c-6 0 -11 -5 -11 -10v-118c0 -5 5 -10 11 -10h21l11 31h140l11 -31h21
c5 0 6 5 6 10v118c0 5 -1 10 -6 10zM356 242h-203v54l11 9h183l9 -10v-53zM195 205l-6 -18h136l-6 18h-124zM224 272c0 -9 -7 -16 -15 -16c-9 0 -15 7 -15 16c0 8 6 15 15 15c8 0 15 -7 15 -15zM319 272c0 -9 -6 -16 -15 -16c-8 0 -15 7 -15 16c0 8 7 15 15 15
c9 0 15 -7 15 -15z" />
    <glyph glyph-name="qticons-download" unicode="r" 
d="M256 485c-126 0 -229 -103 -229 -229s103 -229 229 -229s229 103 229 229s-103 229 -229 229zM256 63c-106 0 -193 87 -193 193s87 193 193 193c107 0 193 -87 193 -193s-87 -193 -193 -193zM342 199v-29h-172v29h-28v-57h228v57h-28zM270 256v114h-28v-114h-43l57 -71
l57 71h-43z" />
    <glyph glyph-name="qticons-event" unicode="s" 
d="M256 484c-126 0 -229 -102 -229 -228s103 -229 229 -229s229 103 229 229s-103 228 -229 228zM256 63c-106 0 -193 87 -193 193s87 193 193 193s193 -87 193 -193s-87 -193 -193 -193zM318 385l-8 3l-17 -44h10zM321 150h-56v76l99 118h-61l-23 -61c6 -4 9 -12 6 -20
c-3 -9 -13 -13 -22 -10s-13 13 -10 22c3 7 10 12 18 11l21 58h-149l100 -118v-76h-55c-18 0 -18 -19 0 -19h132c18 0 18 19 0 19z" />
    <glyph glyph-name="qticons-headphones" unicode="t" 
d="M256 484c-126 0 -229 -102 -229 -228s103 -229 229 -229s229 103 229 229s-103 228 -229 228zM256 63c-106 0 -193 87 -193 193s87 193 193 193s193 -87 193 -193s-87 -193 -193 -193zM245 368c54 4 92 -25 112 -58c10 -17 17 -36 17 -67v-43c0 -13 0 -28 -13 -28
c-16 -1 -14 18 -14 36c0 15 1 35 0 50c-2 25 -13 43 -27 56c-16 17 -40 30 -75 28c-42 -4 -79 -39 -83 -84c-1 -13 0 -34 0 -50c0 -18 2 -36 -13 -36c-12 -1 -14 10 -14 26v40c0 57 18 85 51 108c15 11 36 20 59 22zM194 240c9 1 20 -5 23 -14c2 -6 1 -24 1 -33
c0 -8 1 -25 -2 -32c-7 -17 -34 -17 -41 1c-3 8 -1 23 -1 32c0 26 -2 44 20 46zM311 240c9 1 19 -5 22 -12c3 -4 2 -25 2 -33c0 -4 2 -26 -1 -33c-7 -18 -33 -18 -41 -1c-3 6 -2 22 -2 32c0 16 -1 28 2 35c2 5 8 11 18 12z" />
    <glyph glyph-name="qticons-map" unicode="u" 
d="M256 484c-126 0 -229 -102 -229 -228s103 -229 229 -229s229 103 229 229s-103 228 -229 228zM256 63c-106 0 -193 87 -193 193s87 193 193 193s193 -87 193 -193s-87 -193 -193 -193zM144 145l63 32v190l-63 -32v-190zM223 177l64 -32v190l-64 32v-190zM302 145l64 32
v190l-64 -32v-190z" />
    <glyph glyph-name="qticons-photobucket" unicode="v" 
d="M256 485c-126 0 -229 -103 -229 -229s103 -229 229 -229s229 103 229 229s-103 229 -229 229zM256 63c-106 0 -193 87 -193 193s87 193 193 193s193 -87 193 -193s-87 -193 -193 -193zM346 317h-50c-10 6 -27 10 -40 10s-30 -4 -40 -10h-10c0 11 -9 10 -14 10h-18
c-5 0 -8 -5 -8 -10c-5 0 -10 -3 -10 -7v-108c0 -4 5 -7 10 -7h50c10 -6 27 -10 40 -10s30 4 40 10h50c5 0 10 3 10 7v108c0 4 -5 7 -10 7zM166 205v102h40c-15 -13 -23 -30 -23 -51s8 -38 23 -51h-40zM289 202c-5 -2 -10 -4 -16 -6v0c-3 -1 -5 -1 -7 -2h-2h-8h-8h-2
c-2 1 -4 1 -7 2v0c-6 2 -11 4 -16 6c-18 11 -31 31 -31 54s13 43 31 54c5 2 10 4 16 6v0c3 1 5 1 7 2h2c3 0 5 1 8 1s5 -1 8 -1h2c2 -1 4 -1 7 -2h1l15 -6c18 -11 31 -31 31 -54s-13 -43 -31 -54zM346 205h-40c15 13 23 30 23 51s-8 38 -23 51h40v-102zM256 307v-10
c23 0 40 -18 40 -41h10c0 27 -22 51 -50 51z" />
    <glyph glyph-name="qticons-reverbnation" unicode="w" 
d="M256 484c-126 0 -229 -102 -229 -228s103 -229 229 -229s229 103 229 229s-103 228 -229 228zM256 63c-106 0 -193 87 -193 193s87 193 193 193s193 -87 193 -193s-87 -193 -193 -193zM256 363l-27 -82h-86l70 -50l-27 -82l70 50l70 -50l-27 81l70 51h-86z" />
    <glyph glyph-name="qticons-star" unicode="x" 
d="M291 293l-35 72l-35 -72l-79 -11l57 -56l-14 -78l71 37l70 -38l-13 79l57 55zM256 485c-126 0 -229 -103 -229 -229s103 -229 229 -229s229 103 229 229s-103 229 -229 229zM256 63c-106 0 -193 87 -193 193s87 193 193 193s193 -87 193 -193s-87 -193 -193 -193z" />
    <glyph glyph-name="qticons-stop" unicode="y" 
d="M256 485c-126 0 -229 -103 -229 -229s103 -229 229 -229s229 103 229 229s-103 229 -229 229zM256 63c-106 0 -193 87 -193 193s87 193 193 193s193 -87 193 -193s-87 -193 -193 -193zM185 327h142v-142h-142v142z" />
    <glyph glyph-name="qticons-th" unicode="z" 
d="M256 485c-126 0 -229 -103 -229 -229s103 -229 229 -229s229 103 229 229s-103 229 -229 229zM256 63c-106 0 -193 87 -193 193s87 193 193 193s193 -87 193 -193s-87 -193 -193 -193zM156 356h57v-57h-57v57zM227 356h58v-57h-58v57zM299 356h57v-57h-57v57zM299 285h57
v-58h-57v58zM299 213h57v-57h-57v57zM227 213h58v-57h-58v57zM156 213h57v-57h-57v57zM156 285h57v-58h-57v58zM227 285h58v-58h-58v58z" />
    <glyph glyph-name="qticons-th-large" unicode="A" 
d="M256 485c-126 0 -229 -103 -229 -229s103 -229 229 -229s229 103 229 229s-103 229 -229 229zM256 63c-106 0 -193 87 -193 193s87 193 193 193s193 -87 193 -193s-87 -193 -193 -193zM142 370h100v-100h-100v100zM142 242h100v-100h-100v100zM270 370h100v-100h-100v100
zM270 242h100v-100h-100v100z" />
    <glyph glyph-name="qticons-thunder" unicode="B" 
d="M256 484c-126 0 -229 -102 -229 -228s103 -229 229 -229s229 103 229 229s-103 228 -229 228zM256 63c-106 0 -193 87 -193 193s87 193 193 193s193 -87 193 -193s-87 -193 -193 -193zM220 390h109l-53 -96h50l-113 -172l30 129h-59z" />
    <glyph glyph-name="qticons-zoom-in" unicode="C" 
d="M256 485c-126 0 -229 -103 -229 -229s103 -229 229 -229s228 103 228 229c1 126 -102 229 -228 229zM256 63c-106 0 -193 87 -193 193s87 193 193 193s193 -87 193 -193s-87 -193 -193 -193zM270 342h72v-72h28v100h-100v-28zM170 270v72h72v28h-100v-100h28zM242 170
h-72v72h-28v-100h100v28zM342 242v-72h-72v-28h100v100h-28zM242 313h28v-114h-28v114zM199 270h114v-28h-114v28z" />
    <glyph glyph-name="qticons-torso" unicode="D" 
d="M256 484c-126 0 -229 -102 -229 -228s103 -229 229 -229s229 103 229 229s-103 228 -229 228zM256 63c-106 0 -193 86 -193 193c0 106 87 193 193 193c107 0 193 -87 193 -193c0 -107 -87 -193 -193 -193zM318 211c-14 3 -33 16 -33 22v16c0 5 7 16 11 26c0 1 2 0 4 2
c3 4 4 11 5 14c1 5 -5 5 -5 5s5 25 1 41c-6 22 -34 33 -45 33s-39 -11 -44 -33c-4 -16 0 -41 0 -41s-5 0 -4 -5c1 -3 2 -10 5 -14c2 -2 3 -1 4 -2c3 -10 11 -21 11 -26v-16c0 -6 -20 -19 -34 -22c-19 -3 -28 -16 -23 -47c2 -16 43 -23 85 -22c41 -1 83 6 85 22
c5 31 -4 44 -23 47z" />
    <glyph glyph-name="qticons-tiktok" unicode="E" 
d="M322.231 399.181c3.508 -22.121 12.081 -38.86 25.719 -50.217c13.695 -11.976 28.965 -18.42 45.811 -19.332v-44.91c-27.513 0.185 -49.697 8.728 -66.553 25.629v-99.823c0.189 -29.019 -8.716 -51.861 -26.716 -68.528s-38.544 -25.063 -61.632 -25.19
c-24.245 0.127 -45.147 9.014 -62.705 26.663c-17.108 17.685 -25.733 39.548 -25.874 65.59c0.141 24.625 8.832 45.61 26.074 62.956c17.425 17.321 38.182 26.029 62.273 26.124c4.576 -0.095 8.603 -0.421 12.08 -0.977v-48.609
c-14.811 1.629 -27.124 -1.271 -36.941 -8.7c-9.517 -7.238 -14.334 -18.073 -14.454 -32.504c0.12 -12.235 4.07 -22.171 11.852 -29.807c8.218 -7.697 17.661 -11.546 28.327 -11.546c10.667 0 19.902 3.827 27.704 11.481c7.479 7.627 11.219 17.584 11.219 29.872
v191.828h43.816zM256.492 484c63.334 0 117.334 -22.333 162 -67c44.667 -44.667 66.667 -98.333 66 -161c0 -62.667 -22.333 -116.333 -67 -161c-44.666 -44.6667 -98.333 -67 -161 -67c-63.333 0 -117.333 22.3333 -162 67c-44.6667 44.667 -67 98.333 -67 161
c0 62.667 22.3333 116.333 67 161c44.6668 44.667 98.6668 67 162 67zM256.492 63c53.334 0 98.834 18.8333 136.5 56.5c37.667 37.667 56.5 83.167 56.5 136.5c0 53.333 -18.833 98.833 -56.5 136.5c-37.666 37.667 -83.166 56.5 -136.5 56.5
c-53.333 0 -98.833 -18.833 -136.5 -56.5c-37.6665 -37.667 -56.4998 -83.167 -56.4998 -136.5c0 -53.333 18.8333 -98.833 56.4998 -136.5c37.667 -37.6667 83.167 -56.5 136.5 -56.5z" />
    <glyph glyph-name="qticons-tumblr" unicode="F" 
d="M256 485c-126 0 -229 -103 -229 -229s103 -229 229 -229s229 103 229 229s-103 229 -229 229zM256 63c-107 0 -193 87 -193 193s86 193 193 193c106 0 193 -87 193 -193s-87 -193 -193 -193zM230 188c-4 2 -7 5 -8 9c-2 5 -5 14 -5 28v40h60v44h-60v61h-25
c-2 -13 -2 -17 -7 -25c-4 -8 -10 -19 -17 -25s-16 -12 -26 -15v-40h29v-63c0 -12 1 -20 3 -26c3 -6 7 -12 13 -17c7 -5 20 -12 20 -12s12 -5 23 -5c10 0 20 1 28 3c9 2 22 7 33 12v39c-13 -8 -29 -13 -41 -13c-8 0 -14 1 -20 5zM339 203c-17 0 -31 -14 -31 -31
s14 -30 31 -30s31 13 31 30s-14 31 -31 31z" />
    <glyph glyph-name="qticons-twitter" unicode="G" 
d="M256 485c-126 0 -229 -103 -229 -229s103 -229 229 -229s229 103 229 229s-103 229 -229 229zM256 63c-106 0 -193 87 -193 193s87 193 193 193s193 -87 193 -193s-87 -193 -193 -193zM370 332c-4 -2 -15 -7 -26 -8c7 4 17 17 20 28c-7 -5 -22 -12 -30 -12v0
c-8 10 -20 16 -34 16c-26 0 -47 -23 -47 -51c0 -4 1 -7 1 -11c-35 1 -76 20 -99 53c-15 -27 -2 -57 14 -68c-6 0 -16 1 -21 6c0 -17 8 -41 37 -49c-6 -4 -16 -3 -20 -2c1 -15 21 -34 42 -34c-8 -10 -33 -27 -65 -21c21 -15 47 -23 74 -23c76 0 135 66 131 148v1v0v1
c7 5 17 14 23 26z" />
    <glyph glyph-name="qticons-upload" unicode="H" 
d="M256 485c-126 0 -229 -103 -229 -229s103 -229 229 -229s229 103 229 229s-103 229 -229 229zM256 63c-106 0 -193 87 -193 193s87 193 193 193c107 0 193 -87 193 -193s-87 -193 -193 -193zM342 199v-29h-172v29h-28v-57h228v57h-28zM242 299v-89h28v89h43l-57 71
l-57 -71h43z" />
    <glyph glyph-name="qticons-vimeo" unicode="I" 
d="M256 485c-126 0 -229 -103 -229 -229s103 -229 229 -229s229 103 229 229s-103 229 -229 229zM256 63c-106 0 -193 87 -193 193s87 193 193 193s193 -87 193 -193s-87 -193 -193 -193zM334 356c-29 0 -52 -19 -61 -54c10 5 30 8 31 -10c2 -18 -25 -64 -37 -64
s-20 52 -23 76c-4 23 -9 50 -31 50c-23 0 -51 -35 -71 -51l10 -15s15 12 20 11c14 -3 25 -58 31 -79s13 -64 43 -64c46 0 124 117 124 155c0 25 -7 45 -36 45z" />
    <glyph glyph-name="qticons-volume" unicode="J" 
d="M256 485c-126 0 -229 -103 -229 -229s103 -229 229 -229s228 103 228 229c1 126 -102 229 -228 229zM256 63c-106 0 -193 87 -193 193s87 193 193 193s193 -87 193 -193s-87 -193 -193 -193zM323 352l-88 -53h-58c-3 0 -7 -3 -7 -7v-72c0 -4 4 -7 7 -7h61l85 -53
c15 -9 19 -2 19 16v160c0 18 -4 25 -19 16z" />
    <glyph glyph-name="qticons-soundcloud" unicode="K" 
d="M256 485c-126 0 -229 -103 -229 -229s103 -229 229 -229s229 103 229 229s-103 229 -229 229zM256 63c-106 0 -193 87 -193 193s87 193 193 193s193 -87 193 -193s-87 -193 -193 -193zM345 262c-5 0 -9 -1 -13 -3c-2 33 -30 59 -64 59c-23 0 -50 -9 -61 -25v-99h138
c19 0 35 15 35 34c0 18 -16 34 -35 34zM145 194v62c-7 -6 -10 -15 -13 -25c-2 -13 6 -31 13 -37zM182 194h12v87h-12v-87zM157 194h13v74h-13v-74z" />
    <glyph glyph-name="qticons-sound" unicode="L" 
d="M256 484c-126 0 -229 -102 -229 -228s103 -229 229 -229s228 103 228 229c1 126 -102 228 -228 228zM256 63c-106 0 -193 86 -193 193c0 106 87 193 193 193s193 -87 193 -193c0 -107 -87 -193 -193 -193zM285 256c0 -16 -13 -28 -29 -28s-29 12 -29 28s13 29 29 29
s29 -13 29 -29zM300 304l-16 -12c11 -8 18 -21 18 -36s-7 -28 -18 -36l16 -12c13 12 22 29 22 48s-9 36 -22 48zM339 333l-16 -12c17 -16 28 -39 28 -65s-11 -49 -28 -65l16 -12c19 20 31 47 31 77s-12 57 -31 77zM210 255c0 15 7 28 19 36l-16 12c-14 -11 -23 -28 -23 -47
s8 -36 22 -48l16 12c-11 8 -19 21 -18 35zM190 321l-16 12c-20 -20 -32 -47 -32 -77c-1 -30 11 -57 30 -77l16 12c-17 16 -27 40 -27 65c1 26 12 49 29 65z" />
    <glyph glyph-name="qticons-skype" unicode="M" 
d="M256 485c-126 0 -229 -103 -229 -229s103 -229 229 -229s229 103 229 229s-103 229 -229 229zM256 63c-106 0 -193 87 -193 193s86 193 193 193s193 -87 193 -193s-87 -193 -193 -193zM355 256c0 56 -46 102 -102 102c-5 0 -10 -1 -15 -2c-11 9 -24 14 -38 14
c-32 0 -58 -26 -58 -58c0 -13 4 -25 11 -35c-1 -7 -2 -14 -2 -21c0 -57 46 -102 102 -102c7 0 14 1 21 2c10 -9 24 -14 38 -14c32 0 58 26 58 58c0 16 -6 30 -16 41c0 5 1 10 1 15zM300 211c-3 -5 -9 -10 -17 -13s-17 -5 -28 -5c-12 0 -23 2 -31 7c-6 3 -11 7 -14 13
c-4 5 -6 10 -6 15c0 3 1 5 3 7c3 3 5 4 9 4c3 0 5 -1 7 -3c2 -1 3 -4 5 -7c1 -4 3 -7 5 -9c2 -3 5 -5 8 -7c3 -1 8 -2 14 -2c7 0 14 1 18 5c5 3 8 7 8 12c0 4 -2 7 -4 10c-3 2 -6 4 -10 5c-4 2 -10 3 -17 4c-9 2 -17 5 -23 7c-6 3 -11 7 -15 11c-4 5 -5 11 -5 17
c0 7 2 13 6 18c3 5 9 9 16 11c8 3 16 4 26 4c8 0 15 0 21 -2c5 -2 10 -4 14 -7s7 -6 8 -10c2 -3 3 -6 3 -9s-1 -6 -3 -8c-3 -2 -5 -4 -9 -4c-3 0 -5 1 -6 3c-2 1 -4 3 -5 6c-3 5 -6 8 -9 11c-3 2 -8 3 -16 3c-6 0 -12 -1 -16 -4c-4 -2 -6 -6 -6 -9s1 -5 2 -7c1 -1 3 -3 6 -4
c2 -1 5 -2 7 -3c3 -1 7 -2 13 -3c7 -2 13 -3 19 -5s11 -4 15 -7c5 -3 8 -6 10 -10s4 -9 4 -15c0 -7 -2 -14 -7 -20z" />
    <glyph glyph-name="qticons-skip-forward" unicode="N" 
d="M256 485c-126 0 -229 -103 -229 -229s103 -229 229 -229s229 103 229 229s-103 229 -229 229zM256 63c-106 0 -193 87 -193 193s87 193 193 193s193 -87 193 -193s-87 -193 -193 -193zM185 185l85 71l-85 71v-142zM270 270v-85h29v142h-29v-57z" />
    <glyph glyph-name="qticons-skip-fast-forward" unicode="O" 
d="M256 485c-126 0 -229 -103 -229 -229s103 -229 229 -229s229 103 229 229s-103 229 -229 229zM256 63c-106 0 -193 87 -193 193s87 193 193 193s193 -87 193 -193s-87 -193 -193 -193zM142 185l85 71l-85 71v-142zM227 256v-71l86 71l-86 71v-71zM313 270v-85h29v142h-29
v-57z" />
    <glyph glyph-name="qticons-skip-fast-backward" unicode="P" 
d="M256 27c126 0 229 103 229 229s-103 229 -229 229s-229 -103 -229 -229s103 -229 229 -229zM256 449c106 0 193 -87 193 -193s-87 -193 -193 -193c-107 0 -193 87 -193 193s86 193 193 193zM342 327l-86 -71l86 -71v142zM256 256v71l-86 -71l86 -71v71zM170 270v57h-28
v-142h28v85z" />
    <glyph glyph-name="qticons-skip-backward" unicode="Q" 
d="M256 485c-126 0 -229 -103 -229 -229s103 -229 229 -229s229 103 229 229s-103 229 -229 229zM256 63c-106 0 -193 87 -193 193s87 193 193 193s193 -87 193 -193s-87 -193 -193 -193zM299 185v142l-86 -71zM185 327v-142h28v142h-28z" />
    <glyph glyph-name="qticons-share" unicode="R" 
d="M256 485c-126 0 -229 -103 -229 -229s103 -229 229 -229s229 103 229 229s-103 229 -229 229zM256 63c-106 0 -193 87 -193 193s87 193 193 193s193 -87 193 -193s-87 -193 -193 -193zM334 297c20 0 36 16 36 37c0 20 -16 36 -36 36c-21 0 -37 -16 -37 -36v-5l-93 -47
c-6 7 -16 11 -26 11c-20 0 -36 -17 -36 -37s16 -37 36 -37c11 0 20 4 27 11l92 -47v-5c0 -20 16 -36 37 -36c20 0 36 16 36 36c0 21 -16 37 -36 37c-11 0 -20 -4 -27 -11l-92 47v5v6l92 46c7 -7 16 -11 27 -11z" />
    <glyph glyph-name="qticons-search" unicode="S" 
d="M366 166l-69 69c10 14 16 31 16 50c0 47 -38 85 -86 85c-47 0 -85 -38 -85 -85c0 -48 38 -86 85 -86c19 0 36 6 50 16l69 -69c5 -6 15 -6 20 0c6 5 6 15 0 20zM276 256c-4 -9 -11 -16 -20 -20c-8 -5 -18 -9 -29 -9c-31 0 -57 26 -57 58c0 31 26 57 57 57
c32 0 58 -26 58 -57c0 -11 -4 -21 -9 -29zM256 485c-126 0 -229 -103 -229 -229s103 -229 229 -229s229 103 229 229s-103 229 -229 229zM256 63c-106 0 -193 87 -193 193s87 193 193 193c107 0 193 -87 193 -193s-87 -193 -193 -193z" />
    <glyph glyph-name="qticons-rss" unicode="T" 
d="M256 485c-126 0 -229 -103 -229 -229s103 -229 229 -229s229 103 229 229s-103 229 -229 229zM256 63c-106 0 -193 87 -193 193s87 193 193 193s193 -87 193 -193s-87 -193 -193 -193zM142 279v-46c50 0 91 -41 91 -91h46c0 75 -62 137 -137 137zM142 370v-45
c101 0 183 -82 183 -183h45c0 126 -102 228 -228 228zM187 165c0 -13 -10 -23 -22 -23c-13 0 -23 10 -23 23c0 12 10 22 23 22c12 0 22 -10 22 -22z" />
    <glyph glyph-name="qticons-rewind" unicode="U" 
d="M256 485c-126 0 -229 -103 -229 -229s103 -229 229 -229s229 103 229 229s-103 229 -229 229zM256 63c-106 0 -193 87 -193 193s87 193 193 193s193 -87 193 -193s-87 -193 -193 -193zM327 185v142l-85 -71zM156 256l86 -71v142z" />
    <glyph glyph-name="qticons-pinterest" unicode="V" 
d="M256 485c-126 0 -229 -103 -229 -229s103 -229 229 -229s229 103 229 229s-103 229 -229 229zM256 63c-106 0 -193 87 -193 193s87 193 193 193c107 0 193 -87 193 -193s-87 -193 -193 -193zM261 370c-62 0 -94 -44 -94 -82c0 -22 9 -42 27 -50c3 -1 6 0 7 3
c0 3 2 8 2 11c1 3 1 4 -1 7c-6 6 -9 15 -9 26c0 33 25 63 65 63c35 0 55 -22 55 -50c0 -38 -17 -70 -42 -70c-14 0 -24 11 -21 25c4 17 12 35 12 47c0 10 -6 19 -18 19c-14 0 -26 -14 -26 -34c0 -12 5 -20 5 -20s-15 -61 -17 -72c-5 -21 -1 -47 -1 -50c1 -1 3 -2 3 -1
c2 2 19 23 24 43c2 6 9 36 9 36c5 -8 18 -16 33 -16c42 0 71 39 71 90c0 39 -33 75 -84 75z" />
    <glyph glyph-name="qticons-menu" unicode="W" 
d="M256 484c-126 0 -229 -102 -229 -228s103 -229 229 -229s229 103 229 229s-103 228 -229 228zM256 63c-106 0 -193 87 -193 193s87 193 193 193s193 -87 193 -193s-87 -193 -193 -193zM143 348h222v-37h-222v37zM143 274h222v-36h-222v36zM143 201h222v-37h-222v37z" />
    <glyph glyph-name="qticons-heart" unicode="X" 
d="M305 356c-20 0 -37 -9 -49 -23c-12 14 -29 23 -49 23c-36 0 -65 -30 -65 -67c0 -83 114 -133 114 -133s114 50 114 133c0 37 -29 67 -65 67zM256 485c-126 0 -229 -103 -229 -229s103 -229 229 -229s228 103 228 229s-102 229 -228 229zM256 63c-106 0 -193 87 -193 193
s87 193 193 193s193 -87 193 -193s-87 -193 -193 -193z" />
    <glyph glyph-name="qticons-exclamationmark" unicode="Y" 
d="M256 485c-126 0 -229 -103 -229 -229s103 -229 229 -229s229 103 229 229s-103 229 -229 229zM256 63c-107 0 -193 87 -193 193s86 193 193 193c106 0 193 -87 193 -193s-87 -193 -193 -193zM242 275l5 -76h18l5 77v94h-28v-95zM242 170h28v-28h-28v28z" />
    <glyph glyph-name="qticons-close" unicode="Z" 
d="M327 347l-71 -71l-71 71l-20 -20l71 -71l-71 -71l20 -20l71 71l71 -71l20 20l-71 71l71 71zM256 485c-126 0 -229 -103 -229 -229s103 -229 229 -229s229 103 229 229s-103 229 -229 229zM256 63c-106 0 -193 87 -193 193s87 193 193 193s193 -87 193 -193
s-87 -193 -193 -193z" />
    <glyph glyph-name="qticons-chevron-up" unicode="0" 
d="M485 256c0 126 -103 228 -229 228s-229 -102 -229 -228s103 -229 229 -229s229 103 229 229zM63 256c0 106 87 193 193 193s193 -87 193 -193c0 -107 -87 -193 -193 -193s-193 87 -193 193zM356 235l-100 100l-100 -100l29 -29l71 71l71 -71z" />
    <glyph glyph-name="qticons-cd-note" unicode="1" 
d="M256 484c-126 0 -229 -102 -229 -228s103 -229 229 -229s229 103 229 229s-103 228 -229 228zM256 63c-106 0 -193 87 -193 193s87 193 193 193s193 -87 193 -193s-87 -193 -193 -193zM251 309c-23 0 -42 -19 -42 -43c0 -23 19 -42 42 -42s42 19 42 42
c0 24 -19 43 -42 43zM251 239c-15 0 -28 12 -28 27c0 16 13 28 28 28s28 -12 28 -28c0 -15 -13 -27 -28 -27zM320 197h7v107h8h6h9c-16 40 -54 68 -99 68c-58 0 -106 -47 -106 -106c0 -58 48 -105 106 -105c10 0 19 1 28 3c1 19 19 33 41 33zM251 218c-27 0 -48 22 -48 48
c0 27 21 49 48 49s48 -22 48 -49s-21 -48 -48 -48zM389 268c-7 32 -53 28 -53 28v-110c-5 2 -10 3 -16 3c-18 0 -33 -12 -33 -27c0 -14 15 -26 33 -26s33 12 33 26v109c40 -15 20 -49 20 -49s22 14 16 46z" />
    <glyph glyph-name="qticons-bebo" unicode="2" 
d="M256 485c-126 0 -229 -103 -229 -229s103 -229 229 -229s229 103 229 229s-103 229 -229 229zM256 63c-106 0 -193 87 -193 193s87 193 193 193c107 0 193 -87 193 -193s-87 -193 -193 -193zM267 142h-22c-49 0 -89 41 -89 91v114c0 13 10 23 22 23c13 0 22 -10 22 -23
v-114c0 -25 20 -46 45 -46h22c25 0 45 18 45 40c0 23 -12 40 -23 40h-44c-12 0 -22 11 -22 23c0 13 10 23 22 23h44c37 0 67 -38 67 -86c0 -47 -40 -85 -89 -85z" />
    <glyph glyph-name="qticons-arrow-down" unicode="3" 
d="M28 256c0 -126 102 -229 228 -229s229 103 229 229s-103 228 -229 228s-228 -102 -228 -228zM449 256c0 -107 -87 -193 -193 -193s-193 86 -193 193c0 106 87 193 193 193s193 -87 193 -193zM242 370v-177l-37 34l-20 -19l71 -66l71 66l-20 19l-37 -34v177h-28z" />
    <glyph glyph-name="qticons-arrow-expand" unicode="4" 
d="M256 484c-126 0 -229 -102 -229 -228s103 -229 229 -229s229 103 229 229s-103 228 -229 228zM256 63c-106 0 -193 87 -193 193s87 193 193 193s193 -87 193 -193s-87 -193 -193 -193zM227 356h-71v-71l21 21l36 -36l29 29l-36 36zM285 156h71v71l-21 -21l-36 36l-29 -29
l36 -36zM356 285v71h-71l21 -21l-36 -36l29 -29l36 36zM156 227v-71h71l-21 21l36 36l-29 29l-36 -36z" />
    <glyph glyph-name="qticons-behance" unicode="5" 
d="M256 485c-126 0 -229 -103 -229 -229s103 -229 229 -229s229 103 229 229s-103 229 -229 229zM256 63c-106 0 -193 87 -193 193s87 193 193 193s193 -87 193 -193s-87 -193 -193 -193zM244 313c4 -6 6 -13 6 -22c0 -8 -2 -15 -6 -20c-2 -3 -6 -6 -11 -8
c7 -3 13 -7 16 -12c4 -6 6 -13 6 -21s-2 -15 -6 -22c-3 -4 -6 -8 -10 -11c-5 -3 -10 -6 -16 -7s-12 -2 -19 -2h-62v139h66c17 0 29 -5 36 -14zM169 303v-30h34c6 0 11 1 14 3c4 2 6 6 6 12c0 7 -3 11 -8 13c-4 1 -9 2 -16 2h-30zM169 249v-37h34c6 0 10 1 14 3c6 3 9 9 9 17
c0 7 -3 12 -9 15c-3 2 -8 2 -14 2h-34zM344 289c7 -3 13 -8 17 -15c4 -6 7 -13 8 -22c1 -4 1 -11 1 -20h-74c0 -10 4 -18 11 -22c4 -2 9 -4 14 -4c6 0 11 2 15 5c2 2 4 4 6 7h27c-1 -6 -4 -12 -10 -18c-9 -10 -22 -15 -38 -15c-14 0 -26 4 -36 12c-11 9 -16 22 -16 41
c0 18 5 32 14 42c10 9 22 14 37 14c9 0 17 -2 24 -5zM304 266c-4 -4 -6 -9 -7 -16h46c-1 7 -3 12 -8 16c-4 4 -9 6 -15 6c-7 0 -12 -2 -16 -6zM285 313h71v-14h-71v14z" />
    <glyph glyph-name="qticons-chat-bubble" unicode="6" 
d="M256 485c-126 0 -229 -103 -229 -229s103 -229 229 -229s229 103 229 229s-103 229 -229 229zM256 63c-106 0 -193 87 -193 193s87 193 193 193s193 -87 193 -193s-87 -193 -193 -193zM256 342c-55 0 -100 -34 -100 -75c0 -18 14 -39 29 -52l-15 -45l44 30
c13 -5 27 -7 42 -7c55 0 100 33 100 74s-45 75 -100 75z" />
    <glyph glyph-name="qticons-arrow-left" unicode="7" 
d="M256 484c-126 0 -229 -102 -229 -228s103 -229 229 -229s229 103 229 229s-103 228 -229 228zM256 63c-106 0 -193 87 -193 193c0 107 87 193 193 193s193 -86 193 -193c0 -106 -87 -193 -193 -193zM370 270h-177l34 37l-19 20l-66 -71l66 -71l19 20l-34 37h177v28z" />
    <glyph glyph-name="qticons-blogger" unicode="8" 
d="M256 485c-126 0 -229 -103 -229 -229s103 -229 229 -229s229 103 229 229s-103 229 -229 229zM256 63c-106 0 -193 87 -193 193s87 193 193 193s193 -87 193 -193s-87 -193 -193 -193zM354 285h-9h-1c-15 0 -15 12 -15 12c-1 41 -30 73 -73 73v0h-38
c-42 0 -76 -34 -76 -76v-76c0 -42 28 -76 71 -76h86v0c28 1 71 34 71 76v51c0 8 -8 16 -16 16zM213 313v0h43v0c14 0 14 -7 14 -15c0 -7 -5 -13 -14 -13h-42h-1c-7 0 -15 6 -15 13c0 8 15 15 15 15zM292 199h-79s1 0 0 0c-7 0 -15 7 -15 15c0 7 8 13 15 13h1h79v0
c8 0 13 -6 13 -14c0 -7 -5 -14 -14 -14z" />
    <glyph glyph-name="qticons-chat-bubbles" unicode="9" 
d="M256 485c-126 0 -229 -103 -229 -229s103 -229 229 -229s229 103 229 229s-103 229 -229 229zM256 63c-106 0 -193 87 -193 193s87 193 193 193s193 -87 193 -193s-87 -193 -193 -193zM305 257c-36 0 -65 -20 -65 -44c0 -11 9 -23 18 -31l-9 -26l28 17c9 -2 18 -4 28 -4
c36 0 65 20 65 44s-29 44 -65 44zM256 356c-63 0 -114 -36 -114 -80c0 -20 16 -42 32 -56l-16 -49l50 32c6 -2 13 -4 20 -5c-3 6 -5 12 -5 17c0 32 37 57 82 57c24 0 46 -7 61 -19c3 7 4 15 4 23c0 44 -51 80 -114 80z" />
    <glyph glyph-name="qticons-close-sign" unicode="!" 
d="M256 485c-126 0 -229 -103 -229 -229s103 -229 229 -229s229 103 229 229s-103 229 -229 229zM256 63c-106 0 -193 87 -193 193c0 107 87 193 193 193s193 -86 193 -193c0 -106 -87 -193 -193 -193zM256 370c-63 0 -114 -51 -114 -114s51 -114 114 -114s114 51 114 114
s-51 114 -114 114zM307 226l-21 -21l-30 31l-30 -31l-21 21l31 30l-31 30l21 21l30 -31l30 31l21 -21l-31 -30z" />
    <glyph glyph-name="qticons-exclamationmark-sign" unicode="&#x22;" 
d="M256 485c-126 0 -229 -103 -229 -229s103 -229 229 -229s229 103 229 229s-103 229 -229 229zM256 63c-106 0 -193 87 -193 193c0 107 87 193 193 193s193 -86 193 -193c0 -106 -87 -193 -193 -193zM256 370c-63 0 -114 -51 -114 -114s51 -114 114 -114s114 51 114 114
s-51 114 -114 114zM256 199c-8 0 -14 6 -14 14s6 14 14 14s14 -6 14 -14s-6 -14 -14 -14zM263 242h-14l-7 71h28z" />
    <glyph glyph-name="qticons-help-buoy" unicode="#" 
d="M256 484c-126 0 -229 -102 -229 -228s103 -229 229 -229s229 103 229 229s-103 228 -229 228zM256 63c-106 0 -193 86 -193 193c0 106 87 193 193 193s193 -87 193 -193c0 -107 -87 -193 -193 -193zM256 370c-63 0 -114 -51 -114 -114s51 -114 114 -114s114 51 114 114
s-51 114 -114 114zM363 256v-11v11v11v-11zM362 269c0 3 -1 6 -1 9c0 -3 1 -6 1 -9zM361 279c-2 7 -4 14 -7 21c3 -7 5 -14 7 -21zM354 300l-46 -22c-5 14 -16 25 -29 30l21 46c24 -11 43 -30 54 -54zM306 256c0 -7 -1 -14 -4 -20c-5 -11 -15 -21 -26 -26
c-7 -3 -13 -4 -20 -4s-13 1 -19 4c-12 5 -22 15 -27 26c-3 6 -4 13 -4 20s1 13 4 19c5 12 15 22 27 27c6 2 12 4 19 4s13 -2 20 -4c11 -5 21 -15 26 -27c3 -6 4 -12 4 -19zM269 362c3 0 6 -1 10 -1c-4 0 -7 1 -10 1zM279 360c7 -1 14 -3 21 -6c-7 3 -14 5 -21 6zM267 362
c-3 1 -7 1 -11 1s-8 0 -11 -1c3 1 7 1 11 1s8 0 11 -1zM243 362c-3 0 -6 -1 -10 -1c4 0 7 1 10 1zM233 360c-7 -1 -14 -3 -21 -6c7 3 14 5 21 6zM212 354l21 -46c-13 -5 -24 -16 -29 -30l-46 22c-3 -7 -5 -14 -7 -21c8 34 31 61 61 75zM150 267c-1 -3 -1 -7 -1 -11
s0 -8 1 -11c-1 3 -1 7 -1 11s0 8 1 11zM151 279c0 -4 -1 -7 -1 -10c0 3 1 6 1 10zM158 212c-3 7 -5 14 -7 21c2 -7 4 -14 7 -21zM151 233c0 4 -1 7 -1 10c0 -3 1 -6 1 -10zM158 212l46 21c5 -13 16 -24 30 -30l-22 -45c-24 11 -43 30 -54 54zM243 150c-3 0 -6 1 -10 1
c4 0 7 -1 10 -1zM233 151c-7 2 -14 4 -21 7c7 -3 14 -5 21 -7zM245 149h11h11h-11h-11zM269 150c3 0 6 1 10 1c-4 0 -7 -1 -10 -1zM279 151c4 1 7 2 10 3c-3 -1 -6 -2 -10 -3zM289 154c4 1 7 3 11 4c-4 -1 -7 -3 -11 -4zM300 158l-21 45c13 6 24 17 29 30l46 -21
c-11 -24 -30 -43 -54 -54zM362 243c0 -3 -1 -6 -1 -10c0 4 1 7 1 10zM361 233c-2 -7 -4 -14 -7 -21c3 7 5 14 7 21z" />
    <glyph glyph-name="qticons-minus" unicode="$" 
d="M142 270h228v-28h-228v28zM256 485c-126 0 -229 -103 -229 -229s103 -229 229 -229s229 103 229 229s-103 229 -229 229zM256 63c-106 0 -193 87 -193 193s86 193 193 193s193 -87 193 -193s-87 -193 -193 -193z" />
    <glyph glyph-name="qticons-plane" unicode="%" 
d="M265 235v0h-2l-36 -35l-1 -48l-11 -11c-1 -1 -1 -1 -2 -1c-2 0 -3 0 -3 1c-1 1 -1 2 -2 3l-7 27c0 1 0 2 -1 2h-2s-3 0 -4 -2l-3 -3c-3 -2 -6 -3 -11 -3c-4 0 -5 2 -5 5v6c1 2 2 4 3 5l5 5v0v1c1 0 1 1 1 1c0 1 -1 2 -1 2c-1 1 -2 1 -2 2l-28 6c-2 1 -3 2 -3 5v0v1l11 11
s1 0 1 1h2h45l1 1h1l33 36c1 1 1 1 1 2c0 2 -1 3 -2 4l-115 37c-1 0 -2 1 -2 2v2v1s0 1 1 1l9 9s0 1 1 1h1h161l40 42c2 3 6 5 10 7c4 1 8 2 12 2c3 0 5 0 7 -1c3 -2 4 -4 5 -7v-4c0 -3 0 -7 -2 -11c-1 -4 -2 -7 -5 -9l-42 -41c-1 0 -1 -1 -1 -1v-2v-154s-1 -1 -1 -3v-3v-1
c-1 0 -1 0 -1 -1l-9 -8c-1 -1 -2 -1 -2 -1c-2 0 -3 0 -4 2l-37 114l-2 2c0 1 -1 1 -2 1zM256 484c-126 0 -229 -102 -229 -228s103 -229 229 -229s229 103 229 229s-103 228 -229 228zM256 63c-106 0 -193 87 -193 193s87 193 193 193s193 -87 193 -193s-87 -193 -193 -193z
" />
    <glyph glyph-name="qticons-plus" unicode="'" 
d="M270 370h-28v-100h-100v-28h100v-100h28v100h100v28h-100v100zM256 485c-126 0 -229 -103 -229 -229s103 -229 229 -229s229 103 229 229s-103 229 -229 229zM256 63c-106 0 -193 87 -193 193s87 193 193 193s193 -87 193 -193s-87 -193 -193 -193z" />
    <glyph glyph-name="qticons-plus-sign" unicode="(" 
d="M256 485c-126 0 -229 -103 -229 -229s103 -229 229 -229s229 103 229 229s-103 229 -229 229zM256 63c-106 0 -193 87 -193 193c0 107 87 193 193 193c107 0 193 -86 193 -193c0 -106 -87 -193 -193 -193zM256 370c-63 0 -114 -51 -114 -114s51 -114 114 -114
s114 51 114 114s-51 114 -114 114zM313 242h-43v-43h-28v43h-43v28h43v43h28v-43h43v-28z" />
    <glyph glyph-name="qticons-power" unicode=")" 
d="M256 484c-126 0 -229 -102 -229 -228s103 -229 229 -229s229 103 229 229s-103 228 -229 228zM256 63c-106 0 -193 87 -193 193c0 107 87 193 193 193s193 -86 193 -193c0 -106 -87 -193 -193 -193zM242 370h28v-71h-28v71zM285 338v-31c25 -11 42 -36 42 -65
c0 -40 -32 -72 -71 -72s-71 32 -71 72c0 29 17 54 42 65v31c-41 -13 -71 -51 -71 -96c0 -56 45 -100 100 -100s100 44 100 100c0 45 -30 83 -71 96z" />
    <glyph glyph-name="qticons-questionmark" unicode="*" 
d="M256 485c-126 0 -229 -103 -229 -229s103 -229 229 -229s229 103 229 229s-103 229 -229 229zM256 63c-106 0 -193 87 -193 193s87 193 193 193s193 -87 193 -193s-87 -193 -193 -193zM242 170h28v-28h-28v28zM311 350c-6 6 -13 11 -22 15c-9 3 -20 5 -32 5
c-11 0 -21 -2 -30 -5c-9 -4 -16 -9 -23 -15c-6 -7 -11 -13 -14 -23c-4 -9 -5 -14 -5 -28h29c0 14 4 25 11 34c8 10 18 13 32 13c13 0 22 -3 28 -9c6 -7 10 -16 10 -27c0 -9 -3 -17 -9 -24c-6 -6 -12 -13 -19 -20c-6 -6 -12 -13 -18 -20c-5 -7 -7 -15 -7 -24v-23h28v12
c0 7 1 14 4 19c3 6 6 11 11 15c4 5 9 9 14 14c4 4 9 8 13 13c5 5 8 10 11 16s4 13 4 21c0 7 -1 14 -3 22c-3 7 -7 14 -13 19z" />
    <glyph glyph-name="qticons-questionmark-sign" unicode="+" 
d="M256 485c-126 0 -229 -103 -229 -229s103 -229 229 -229s229 103 229 229s-103 229 -229 229zM256 63c-106 0 -193 87 -193 193c0 107 87 193 193 193s193 -86 193 -193c0 -106 -87 -193 -193 -193zM256 370c-63 0 -114 -51 -114 -114s51 -114 114 -114s114 51 114 114
s-51 114 -114 114zM252 197c-9 0 -15 7 -15 16s6 15 15 15s15 -6 15 -15s-6 -16 -15 -16zM276 261c-6 -7 -6 -14 -6 -21v2h-29v2c-1 8 2 16 10 25c6 7 10 12 10 17c0 6 -4 10 -13 10c-5 0 -12 -2 -16 -5l-6 19c6 3 16 6 28 6c23 0 35 -12 35 -26c0 -13 -7 -22 -13 -29z" />
    <glyph glyph-name="qticons-quote" unicode="," 
d="M256 485c-126 0 -229 -103 -229 -229s103 -229 229 -229s229 103 229 229s-103 229 -229 229zM256 63c-106 0 -193 87 -193 193s87 193 193 193s193 -87 193 -193s-87 -193 -193 -193zM241 319l-27 23c-33 -25 -58 -68 -58 -114c0 -37 21 -58 45 -58c21 0 38 19 38 41
s-15 39 -35 39c-3 0 -8 -2 -9 -2c3 25 23 55 46 71zM319 250c-3 0 -8 -2 -9 -2c3 25 23 55 46 71l-27 23c-33 -25 -58 -68 -58 -114c0 -37 21 -58 45 -58c21 0 39 19 39 41s-15 39 -36 39z" />
    <glyph glyph-name="qticons-record" unicode="-" 
d="M256 484c-126 0 -229 -102 -229 -228s103 -228 229 -228s229 102 229 228s-103 228 -229 228zM256 63c-106 0 -193 86 -193 193c0 106 87 193 193 193s193 -87 193 -193c0 -107 -87 -193 -193 -193zM327 256c0 -39 -32 -71 -71 -71s-71 32 -71 71s32 71 71 71
s71 -32 71 -71z" />
    <glyph glyph-name="qticons-replay" unicode="." 
d="M256 485c-126 0 -229 -103 -229 -229s103 -229 229 -229s229 103 229 229s-103 229 -229 229zM256 63c-106 0 -193 87 -193 193s86 193 193 193s193 -87 193 -193s-87 -193 -193 -193zM321 261c-37 24 -94 24 -94 24v42l-85 -71l85 -57v43s37 8 73 -6
c34 -13 70 -51 70 -51s-11 52 -49 76z" />
    <glyph glyph-name="qticons-pencil" unicode="/" 
d="M256 484c-126 0 -229 -102 -229 -228s103 -229 229 -229s229 103 229 229s-103 228 -229 228zM256 63c-106 0 -193 87 -193 193s87 193 193 193s193 -87 193 -193s-87 -193 -193 -193zM288 365h3c2 -1 6 -2 10 -3c3 -1 9 -1 10 -3c0 -3 -4 -6 -6 -8l-88 -88
c-4 -4 -10 -11 -15 -12c-6 0 -12 4 -16 4c-4 -2 -4 -7 -5 -10c-3 -8 -5 -16 -7 -25c-1 -4 -3 -9 -3 -12c0 -2 5 -7 8 -9l27 -27c12 3 25 7 37 10c4 1 8 1 11 5c0 4 -5 11 -4 17c1 5 8 11 12 14c14 13 27 27 40 40c15 15 31 31 47 46c2 2 5 6 7 6c3 -1 4 -8 4 -11
c2 -4 3 -8 3 -12v-2c-30 -31 -63 -62 -94 -94c-5 -4 -10 -11 -14 -13c-3 -2 -8 -3 -13 -4c-29 -8 -59 -15 -88 -24h-3c-1 1 -2 2 -2 3v2c7 28 16 60 24 88c1 4 1 9 3 13s9 9 13 14c29 28 55 54 83 82c5 4 11 13 16 13zM319 351c3 1 7 -3 10 -6c5 -5 10 -10 15 -16
c3 -2 7 -5 8 -9c0 -4 -10 -11 -13 -14c-27 -27 -54 -53 -81 -80c-3 -4 -10 -13 -14 -13s-7 5 -9 7l-16 16c-2 2 -7 6 -7 9c0 4 8 10 12 14c28 28 53 52 80 80c3 3 10 12 15 12z" />
    <glyph glyph-name="qticons-magnet" unicode=":" 
d="M256 485c-126 0 -229 -103 -229 -229s103 -229 229 -229s229 103 229 229s-103 229 -229 229zM256 63c-106 0 -193 87 -193 193s87 193 193 193s193 -87 193 -193s-87 -193 -193 -193zM313 356h29v-29h-29v29zM313 241c0 -31 -25 -56 -57 -56v0c-32 0 -57 25 -57 56v72
h-29v-72c0 -47 38 -85 85 -85h2c47 0 85 38 85 85v72h-29v-72zM170 356h29v-29h-29v29z" />
    <glyph glyph-name="qticons-google" unicode=";" 
d="M256 485c-126 0 -229 -103 -229 -229s103 -229 229 -229s229 103 229 229s-103 229 -229 229zM256 63c-106 0 -193 87 -193 193s86 193 193 193s193 -87 193 -193s-87 -193 -193 -193zM327 370c-23 -13 -47 -2 -65 0c-77 8 -101 -70 -45 -101c-14 -7 -14 -40 2 -45
c-36 -3 -43 -48 -24 -66c24 -22 97 -21 119 0c15 14 17 44 4 58c-12 12 -72 14 -71 34c0 14 22 12 35 17c25 10 39 41 30 65l15 3v35zM233 298c-29 55 66 51 37 0c-9 -6 -28 -7 -37 0zM286 190c3 -24 -55 -25 -61 -8c-6 14 1 18 18 22c18 4 41 3 43 -14z" />
    <glyph glyph-name="qticons-empty" unicode="&#x3c;" 
d="M256 485c-126 0 -229 -103 -229 -229s103 -229 229 -229s229 103 229 229s-103 229 -229 229zM256 63c-107 0 -193 87 -193 193s86 193 193 193c106 0 193 -87 193 -193s-87 -193 -193 -193z" />
    <glyph glyph-name="qticons-chevron-light-up" unicode="=" 
d="M485 256c0 126 -103 229 -229 229s-229 -103 -229 -229s103 -229 229 -229s229 103 229 229zM63 256c0 107 87 193 193 193s193 -86 193 -193c0 -106 -87 -193 -193 -193s-193 87 -193 193zM352 217c5 6 5 15 0 21l-86 85c-6 6 -15 6 -20 0l-86 -85c-3 -3 -4 -7 -4 -11
c0 -3 1 -7 4 -10c6 -5 15 -5 20 0l76 76l76 -76c5 -5 14 -5 20 0z" />
    <glyph glyph-name="qticons-at-sign" unicode="&#x3e;" 
d="M256 484c-126 0 -229 -102 -229 -228s103 -228 229 -228s228 102 228 228c1 126 -102 228 -228 228zM256 63c-106 0 -193 86 -193 193c0 106 87 193 193 193s193 -87 193 -193c0 -107 -87 -193 -193 -193zM259 278c-3 0 -6 -1 -9 -3s-6 -4 -8 -7s-4 -6 -6 -10
c-1 -3 -2 -7 -2 -10c0 -2 0 -4 1 -6c0 -1 1 -3 2 -5c1 -1 3 -2 4 -3c2 -1 4 -2 6 -2c5 0 9 2 13 5s6 7 8 12c1 3 2 5 2 7c1 2 1 3 2 4v3v1c0 4 -1 8 -4 10c-2 3 -5 4 -9 4zM256 370c-63 0 -114 -51 -114 -114s51 -114 114 -114s114 51 114 114s-51 114 -114 114zM310 248
c-2 -5 -5 -10 -9 -14c-4 -3 -8 -6 -12 -8c-5 -2 -10 -3 -15 -3c-3 0 -5 1 -7 3c-1 2 -2 4 -3 7c-2 -4 -5 -6 -7 -7c-3 -2 -7 -2 -11 -2c-3 0 -7 0 -9 2c-3 1 -6 3 -8 5s-3 5 -4 7c-1 3 -2 6 -2 9c0 5 1 9 3 14s4 9 7 13s7 7 11 10c5 2 9 3 15 3c2 0 5 0 7 -1s3 -2 5 -3
c1 -1 2 -3 3 -4s2 -2 2 -3l4 9h10l-13 -44c-1 -2 -1 -3 -1 -4c0 -3 1 -4 3 -4s4 0 6 1c3 1 5 2 8 5c3 2 5 6 7 10s3 10 3 17c0 5 -1 10 -3 15c-3 5 -6 9 -10 12c-4 4 -8 6 -13 8c-6 2 -11 3 -16 3c-8 0 -14 -1 -21 -4c-6 -2 -11 -6 -16 -10c-5 -5 -8 -10 -11 -16
c-3 -7 -4 -13 -4 -20s2 -13 4 -19c3 -6 7 -10 11 -14c5 -4 10 -7 16 -10c6 -2 12 -3 18 -3c9 0 16 2 23 6c7 3 12 13 16 13h10c-2 0 -5 -9 -8 -12c-4 -4 -8 -7 -12 -9c-5 -2 -10 -4 -15 -5s-11 -2 -16 -2c-8 0 -15 1 -22 4c-6 3 -12 6 -18 11c-5 5 -9 11 -12 17
c-3 7 -5 14 -5 22c0 9 2 18 5 25c3 8 8 14 13 19c6 5 13 9 20 12c8 3 15 4 24 4c6 0 13 -1 19 -3c7 -3 12 -6 17 -10s9 -9 12 -15c3 -5 4 -12 4 -19s-1 -13 -3 -18z" />
    <glyph glyph-name="qticons-at" unicode="?" 
d="M256 485c-126 0 -229 -103 -229 -229s103 -228 229 -228s229 102 229 228s-103 229 -229 229zM256 63c-106 0 -193 87 -193 193s87 193 193 193s193 -87 193 -193s-87 -193 -193 -193zM309 307c1 1 1 2 1 3c0 8 -5 12 -15 12c-5 0 -8 -1 -10 -2c-1 -2 -2 -5 -3 -10
c-4 5 -8 9 -11 11c-4 1 -9 2 -16 2c-16 0 -31 -8 -43 -25c-11 -16 -17 -33 -17 -51c0 -14 4 -26 11 -36c8 -12 19 -18 32 -18c11 0 22 4 32 12c5 -8 13 -12 24 -12c21 0 40 9 55 27c14 17 21 37 21 59c0 27 -11 49 -33 67c-21 16 -45 24 -71 24c-35 0 -64 -11 -88 -33
s-36 -51 -36 -86c0 -36 12 -64 37 -83c22 -18 52 -26 88 -26c16 0 31 2 45 7c16 5 30 13 40 23c4 3 7 7 10 11c4 6 6 10 6 14c0 2 -1 5 -3 7s-4 3 -7 3c-5 0 -9 -2 -12 -5c-5 -6 -9 -10 -12 -14c-18 -15 -40 -23 -67 -23c-28 0 -51 7 -68 21c-19 15 -28 37 -28 66
c0 27 9 50 27 69c17 19 40 28 67 28c21 0 39 -6 53 -18c15 -13 22 -30 22 -51c0 -12 -2 -22 -5 -32c-5 -10 -11 -19 -19 -24c-6 -5 -11 -7 -14 -7c-4 0 -6 2 -6 5c0 2 1 9 3 21zM266 244c-7 -19 -14 -29 -22 -29c-12 0 -17 8 -17 22c0 12 3 25 10 39c8 17 16 26 26 26
c4 0 7 -2 10 -7c1 -3 2 -7 2 -12c0 -10 -3 -23 -9 -39z" />
    <glyph glyph-name="qticons-arrow-up" unicode="@" 
d="M485 256c0 126 -103 228 -229 228s-228 -102 -228 -228s102 -229 228 -229s229 103 229 229zM63 256c0 106 86 193 193 193c106 0 193 -87 193 -193c0 -107 -87 -193 -193 -193c-107 0 -193 87 -193 193zM270 142v177l37 -34l20 19l-71 66l-71 -66l20 -19l37 34v-177h28z
" />
    <glyph glyph-name="qticons-arrow-shrink" unicode="[" 
d="M256 484c-126 0 -229 -102 -229 -228s103 -229 229 -229s228 103 228 229c1 126 -102 228 -228 228zM256 63c-106 0 -193 87 -193 193s87 193 193 193s193 -87 193 -193s-87 -193 -193 -193zM170 270h72v72l-22 -22l-35 36l-29 -29l36 -35zM320 220l22 22h-72v-72l22 22
l35 -36l29 29zM320 292l36 35l-29 29l-35 -36l-22 22v-72h72zM192 220l-36 -35l29 -29l35 36l22 -22v72h-72z" />
    <glyph glyph-name="qticons-arrow-right" unicode="]" 
d="M256 27c126 0 229 103 229 229s-103 228 -229 228s-229 -102 -229 -228s103 -229 229 -229zM256 449c106 0 193 -86 193 -193c0 -106 -87 -193 -193 -193s-193 87 -193 193c0 107 87 193 193 193zM142 242h177l-34 -37l19 -20l66 71l-66 71l-19 -20l34 -37h-177v-28z" />
    <glyph glyph-name="qticons-arrow-move-right" unicode="_" 
d="M256 27c126 0 228 103 228 229s-102 229 -228 229s-229 -103 -229 -229s103 -229 229 -229zM256 449c106 0 193 -87 193 -193c0 -107 -87 -193 -193 -193s-193 86 -193 193c0 106 87 193 193 193zM142 285h14v-58h-14v58zM170 285h15v-58h-15v58zM199 285h14v-58h-14v58z
M313 199l57 57l-57 57v-28h-57v-58h57v-28zM227 285h15v-58h-15v58z" />
    <glyph glyph-name="qticons-arrow-move-left" unicode="`" 
d="M256 485c-126 0 -229 -103 -229 -229s103 -229 229 -229s229 103 229 229s-103 229 -229 229zM256 63c-106 0 -193 86 -193 193c0 106 87 193 193 193s193 -87 193 -193c0 -107 -87 -193 -193 -193zM356 285h14v-58h-14v58zM327 285h15v-58h-15v58zM299 285h14v-58h-14
v58zM199 313l-57 -57l57 -57v28h57v58h-57v28zM270 285h15v-58h-15v58z" />
    <glyph glyph-name="qticons-arrow-move-down" unicode="{" 
d="M27 256c0 -126 103 -229 229 -229s229 103 229 229s-103 229 -229 229s-229 -103 -229 -229zM449 256c0 -107 -87 -193 -193 -193s-193 86 -193 193c0 106 87 193 193 193s193 -87 193 -193zM227 370h57v-14h-57v14zM227 342h57v-15h-57v15zM227 313h57v-14h-57v14z
M199 199l57 -57l57 57h-29v57h-57v-57h-28zM227 285h57v-15h-57v15z" />
    <glyph glyph-name="qticons-briefcase" unicode="|" 
d="M256 484c-126 0 -229 -102 -229 -228s103 -228 229 -228s229 102 229 228s-103 228 -229 228zM256 63c-106 0 -193 86 -193 193c0 106 87 193 193 193c107 0 193 -87 193 -193c0 -107 -87 -193 -193 -193zM356 299h-14v-143h14c8 0 14 6 14 14v115c0 7 -6 14 -14 14z
M185 299h142v-143h-142v143zM170 299h-14c-8 0 -14 -7 -14 -14v-115c0 -8 6 -14 14 -14h14v143zM285 356h-58c-7 0 -14 -6 -14 -14v-29h14v22c0 3 4 7 8 7h42c4 0 8 -4 8 -7v-22h14v29c0 8 -7 14 -14 14z" />
    <glyph glyph-name="qticons-chat-bubbles-outline" unicode="}" 
d="M256 485c-126 0 -229 -103 -229 -229s103 -229 229 -229s228 103 228 229s-102 229 -228 229zM256 63c-106 0 -193 87 -193 193c0 107 87 193 193 193s193 -86 193 -193c0 -106 -87 -193 -193 -193zM370 299c0 39 -38 71 -85 71c-48 0 -86 -32 -86 -71s38 -71 86 -71
c15 0 34 7 34 7l47 -22l-10 46s14 23 14 40zM319 250l-5 -2c-5 -2 -19 -6 -29 -6c-40 0 -72 26 -72 57s32 57 72 57c39 0 71 -26 71 -57c0 -10 -7 -25 -12 -32l-3 -5l5 -24zM227 171c-10 0 -24 4 -29 6l-5 2l-27 -12l5 23l-3 5c-5 8 -12 23 -12 33c0 20 13 37 33 47
c-2 5 -3 10 -4 15c-26 -13 -43 -36 -43 -62c0 -18 14 -40 14 -40l-10 -46l47 21s19 -7 34 -7c44 0 79 27 85 62c-4 -2 -10 -3 -15 -3c-8 -26 -36 -44 -70 -44z" />
    <glyph glyph-name="qticons-comment" unicode="~" 
d="M256 484c-126 0 -229 -102 -229 -228s103 -228 229 -228s228 102 228 228c1 126 -102 228 -228 228zM256 63c-106 0 -193 86 -193 193c0 106 87 193 193 193s193 -87 193 -193c0 -107 -87 -193 -193 -193zM339 356h-166c-10 0 -17 -8 -17 -17v-109c0 -9 7 -17 17 -17h12
v-57l33 57h121c9 0 17 8 17 17v109c0 9 -8 17 -17 17zM327 242h-85v14h85v-14zM327 285h-142v14h142v-14zM327 313h-142v14h142v-14z" />
    <glyph glyph-name="qticons-facebook" unicode="\" 
d="M256 485c-126 0 -229 -103 -229 -229s103 -229 229 -229s229 103 229 229s-103 229 -229 229zM256 63c-106 0 -193 87 -193 193s87 193 193 193c107 0 193 -87 193 -193s-87 -193 -193 -193zM310 291h-40v29c0 9 10 11 14 11h26v39h-30c-40 0 -49 -29 -49 -48v-31h-29
v-40h29v-109h39v109h34z" />
    <glyph glyph-name="qticons-home" unicode="&#xe000;" 
d="M256 484c-126 0 -229 -102 -229 -228s103 -229 229 -229s229 103 229 229s-103 228 -229 228zM256 63c-106 0 -193 87 -193 193s87 193 193 193s193 -87 193 -193s-87 -193 -193 -193zM256 371l-149 -96h35v-117h85v81h58v-78h85v114h35z" />
    <glyph glyph-name="qticons-minus-sign" unicode="&#xe001;" 
d="M256 485c-126 0 -229 -103 -229 -229s103 -229 229 -229s229 103 229 229s-103 229 -229 229zM256 63c-106 0 -193 87 -193 193c0 107 87 193 193 193s193 -86 193 -193c0 -106 -87 -193 -193 -193zM256 370c-63 0 -114 -51 -114 -114s51 -114 114 -114s114 51 114 114
s-51 114 -114 114zM313 242h-114v28h114v-28z" />
    <glyph glyph-name="qticons-mixcloud" unicode="&#xe002;" 
d="M256 485c-126 0 -229 -103 -229 -229s103 -229 229 -229s229 103 229 229s-103 229 -229 229zM256 63c-106 0 -193 87 -193 193s87 193 193 193s193 -87 193 -193s-87 -193 -193 -193zM303 272c-3 20 -11 35 -24 46s-30 20 -52 19c-35 -3 -54 -23 -65 -50
c-23 -5 -36 -17 -40 -38c-5 -24 7 -43 25 -52c10 -5 19 -6 34 -6h79c13 0 27 -1 39 0c20 3 36 19 36 41s-15 34 -32 40zM386 263c-3 8 -9 26 -19 25c-3 0 -7 -3 -7 -7c-1 -4 1 -6 3 -10c5 -9 9 -17 10 -30c3 -17 -1 -33 -7 -44c-2 -5 -7 -8 -6 -14c0 -5 4 -8 9 -8
c8 1 14 16 16 22c7 20 8 45 1 66zM358 258c-3 7 -7 17 -16 15c-3 -1 -6 -4 -7 -8c0 -5 5 -10 6 -13c5 -11 6 -29 1 -40c-2 -5 -7 -9 -7 -14c1 -5 5 -8 10 -8c7 0 10 11 13 17c6 15 6 35 0 51z" />
    <glyph glyph-name="qticons-music" unicode="&#xe003;" 
d="M213 200c-14 4 -11 7 -20 7c-23 0 -39 -15 -39 -33s14 -32 37 -32s36 14 36 32v98l100 49v-104c-14 4 -9 6 -19 6c-23 0 -38 -14 -38 -32s13 -33 36 -33s36 15 36 33v179l-129 -65v-105zM256 485c-126 0 -229 -103 -229 -229s103 -229 229 -229s229 103 229 229
s-103 229 -229 229zM256 63c-106 0 -193 87 -193 193s87 193 193 193s193 -87 193 -193s-87 -193 -193 -193z" />
    <glyph glyph-name="qticons-mute" unicode="&#xe004;" 
d="M256 485c-126 0 -229 -103 -229 -229s103 -229 229 -229s228 103 228 229c1 126 -102 229 -228 229zM256 63c-106 0 -193 87 -193 193s87 193 193 193s193 -87 193 -193s-87 -193 -193 -193zM367 159l-208 208c-4 4 -10 4 -14 0s-4 -10 0 -14l208 -208c4 -4 11 -4 14 0
c4 3 4 10 0 14zM342 194v142c0 18 -4 25 -19 16l-87 -52zM189 299h-12c-3 0 -7 -3 -7 -7v-72c0 -4 4 -7 7 -7h61l85 -53c4 -2 6 -3 9 -4zM367 159l-208 208c-4 4 -10 4 -14 0s-4 -10 0 -14l208 -208c4 -4 11 -4 14 0c4 3 4 10 0 14z" />
    <glyph glyph-name="qticons-navigate" unicode="&#xe005;" 
d="M256 484c-126 0 -229 -102 -229 -228s103 -229 229 -229s228 103 228 229c1 126 -102 228 -228 228zM256 63c-106 0 -193 87 -193 193c0 107 87 193 193 193s193 -86 193 -193c0 -106 -87 -193 -193 -193zM142 266l93 -31l31 -93l104 228zM248 248l-70 24l172 77z" />
    <glyph glyph-name="qticons-news" unicode="&#xe006;" 
d="M256 484c-126 0 -229 -102 -229 -228s103 -229 229 -229s229 103 229 229s-103 228 -229 228zM256 63c-106 0 -193 87 -193 193s87 193 193 193s193 -87 193 -193s-87 -193 -193 -193zM166 377c6 2 12 -1 12 -6c1 -8 -6 -12 -9 -16c-9 -12 -16 -28 -14 -50
c1 -17 8 -29 16 -40c3 -3 7 -8 7 -11c0 -4 -2 -8 -7 -8c-8 -1 -16 12 -19 18c-10 16 -16 38 -12 62c3 22 13 37 26 51zM338 377c11 3 21 -19 25 -27c15 -30 9 -66 -8 -90c-4 -5 -9 -13 -14 -14c-6 -1 -9 4 -9 7c0 5 5 9 8 13c9 11 16 26 16 45c0 20 -7 35 -16 46
c-3 5 -14 16 -2 20zM199 348c5 1 10 -1 11 -7c0 -7 -6 -9 -8 -13c-5 -9 -6 -23 0 -33c3 -5 8 -8 8 -12c0 -3 -4 -7 -7 -8c-11 -2 -23 22 -21 40c0 12 9 30 17 33zM306 348c13 3 22 -21 23 -32c1 -18 -10 -40 -19 -41c-7 -1 -9 4 -9 8c0 5 7 10 9 15c6 12 2 27 -5 35
c-1 2 -4 3 -4 7s3 7 5 8zM280 291c16 -43 35 -92 52 -137c2 -6 7 -15 6 -21s-7 -10 -13 -10c-12 0 -10 13 -16 23c-6 9 -31 18 -46 20c-26 2 -45 -8 -61 -18c-4 -10 -4 -24 -16 -25c-6 0 -12 4 -13 9c-2 8 3 15 6 22c17 44 36 96 52 137c-13 21 0 46 23 48
c24 1 40 -26 26 -48zM272 242c-3 8 -6 22 -11 25c-11 6 -15 -7 -18 -14c-4 -11 -9 -23 -13 -33c15 4 36 4 50 0c-2 7 -5 14 -8 22zM219 192c-1 -4 -3 -8 -4 -12c21 10 60 10 81 0c-1 4 -3 8 -5 12c-18 11 -54 12 -72 0z" />
    <glyph glyph-name="qticons-pause" unicode="&#xe007;" 
d="M256 485c-126 0 -229 -103 -229 -229s103 -229 229 -229s229 103 229 229s-103 229 -229 229zM256 63c-106 0 -193 87 -193 193s87 193 193 193s193 -87 193 -193s-87 -193 -193 -193zM270 185h57v142h-57v-142zM185 327h57v-142h-57v142z" />
    <glyph glyph-name="qticons-paypal" unicode="&#xe008;" 
d="M256 485c-126 0 -229 -103 -229 -229s103 -229 229 -229s229 103 229 229s-103 229 -229 229zM256 63c-106 0 -193 87 -193 193s87 193 193 193s193 -87 193 -193s-87 -193 -193 -193zM290 370h-103l-45 -209h60l15 70h43c41 0 76 25 85 68c10 49 -25 71 -55 71zM288 299
c-4 -16 -19 -28 -34 -28h-29l13 57h30c15 0 24 -13 20 -29zM358 331c5 -11 7 -24 3 -40c-9 -43 -44 -69 -85 -69h-43l-15 -69h-50l-3 -11h61l14 69h43c42 0 76 25 85 69c5 22 0 39 -10 51z" />
    <glyph glyph-name="qticons-loop" unicode="&#xe009;" 
d="M256 485c-126 0 -229 -103 -229 -229s103 -229 229 -229s229 103 229 229s-103 229 -229 229zM256 63c-106 0 -193 87 -193 193s87 193 193 193s193 -87 193 -193s-87 -193 -193 -193zM285 327c0 0 -57 1 -94 -23c-38 -25 -49 -77 -49 -77s36 39 70 52c36 14 73 6 73 6
v-43l85 57l-85 71v-43zM300 233c-36 -14 -73 -6 -73 -6v43l-85 -57l85 -71v43s57 -1 94 23c38 25 49 77 49 77s-36 -39 -70 -52z" />
    <glyph glyph-name="qticons-gear" unicode="&#xe00a;" 
d="M256 484c-126 0 -229 -102 -229 -228s103 -229 229 -229s229 103 229 229s-103 228 -229 228zM256 63c-106 0 -193 87 -193 193s87 193 193 193s193 -87 193 -193s-87 -193 -193 -193zM333 296l28 28l-37 37l-28 -28c-4 3 -9 5 -14 6v40h-52v-40c-5 -1 -10 -3 -14 -6
l-28 28l-37 -37l28 -28c-3 -4 -5 -9 -6 -14h-40v-52h40c1 -5 3 -10 6 -14l-28 -28l37 -37l28 28c4 -3 9 -5 14 -6v-40h52v40c5 1 10 3 14 6l28 -28l37 37l-28 28c3 4 5 9 6 14h40v52h-40c-1 5 -3 10 -6 14zM256 203c-29 0 -53 24 -53 53s24 52 53 52s53 -23 53 -52
s-24 -53 -53 -53z" />
    <glyph glyph-name="qticons-eject" unicode="&#xe00b;" 
d="M256 485c-126 0 -229 -103 -229 -229s103 -229 229 -229s228 103 228 229s-102 229 -228 229zM256 63c-106 0 -193 87 -193 193s87 193 193 193s193 -87 193 -193s-87 -193 -193 -193zM185 242h142l-71 85zM185 213h142v-28h-142v28z" />
    <glyph glyph-name="qticons-chevron-light-right" unicode="&#xe00c;" 
d="M256 27c126 0 228 103 228 229s-102 229 -228 229s-229 -103 -229 -229s103 -229 229 -229zM256 449c106 0 193 -86 193 -193c0 -106 -87 -193 -193 -193s-193 87 -193 193c0 107 87 193 193 193zM217 160c6 -5 15 -5 21 0l85 86c6 5 6 15 0 20l-85 86c-3 3 -7 4 -11 4
c-3 0 -7 -1 -10 -4c-5 -6 -5 -15 0 -20l76 -76l-76 -76c-5 -5 -5 -14 0 -20z" />
    <glyph glyph-name="qticons-caret-up" unicode="&#xe00d;" 
d="M27 256c0 -126 103 -229 229 -229s229 103 229 229s-103 228 -229 228s-229 -102 -229 -228zM449 256c0 -106 -87 -193 -193 -193s-193 87 -193 193c0 107 87 193 193 193s193 -86 193 -193zM240 344l-80 -134c-9 -15 -2 -25 16 -25h160c18 0 25 10 16 25l-80 135
c-9 15 -23 14 -32 -1z" />
    <glyph glyph-name="qticons-caret-right" unicode="&#xe00e;" 
d="M256 484c-126 0 -229 -102 -229 -228s103 -229 229 -229s229 103 229 229s-103 228 -229 228zM256 63c-106 0 -193 87 -193 193c0 107 87 193 193 193s193 -86 193 -193c0 -106 -87 -193 -193 -193zM344 272l-134 80c-15 9 -25 2 -25 -16v-160c0 -18 10 -25 25 -16
l135 80c15 9 14 23 -1 32z" />
    <glyph glyph-name="qticons-caret-left" unicode="&#xe00f;" 
d="M256 27c126 0 229 103 229 229s-103 229 -229 229s-229 -103 -229 -229s103 -229 229 -229zM256 449c106 0 193 -86 193 -193c0 -106 -87 -193 -193 -193s-193 87 -193 193c0 107 87 193 193 193zM168 240l134 -80c15 -9 25 -2 25 16v160c0 18 -10 25 -25 16l-135 -80
c-15 -9 -14 -23 1 -32z" />
    <glyph glyph-name="qticons-card" unicode="&#xe010;" 
d="M256 484c-126 0 -229 -102 -229 -228s103 -229 229 -229s229 103 229 229s-103 228 -229 228zM256 63c-106 0 -193 87 -193 193s87 193 193 193s193 -87 193 -193s-87 -193 -193 -193zM364 296c0 22 -18 39 -39 39h-141c-21 0 -39 -17 -39 -39v-78c0 -22 18 -39 39 -39
h141c21 0 39 17 39 39v78zM184 320h140c11 0 19 -7 22 -16h-184c3 9 12 16 22 16zM348 218c0 -13 -11 -23 -24 -23h-140c-13 0 -23 10 -23 23v55h187v-55zM184 241h62c5 0 8 4 8 8c0 5 -3 8 -8 8h-62c-4 0 -8 -3 -8 -8c0 -4 4 -8 8 -8zM309 241h15c5 0 8 4 8 8
c0 5 -3 8 -8 8h-15c-4 0 -8 -3 -8 -8c0 -4 4 -8 8 -8zM184 210h31c4 0 8 4 8 8s-4 8 -8 8h-31c-4 0 -8 -4 -8 -8s4 -8 8 -8z" />
    <glyph glyph-name="qticons-caret-down" unicode="&#xe011;" 
d="M485 256c0 126 -103 228 -229 228s-229 -102 -229 -228s103 -229 229 -229s229 103 229 229zM63 256c0 107 87 193 193 193s193 -86 193 -193c0 -106 -87 -193 -193 -193s-193 87 -193 193zM272 168l80 134c9 15 2 25 -16 25h-160c-18 0 -25 -10 -16 -25l80 -135
c9 -15 23 -14 32 1z" />
    <glyph glyph-name="qticons-camera" unicode="&#xe012;" 
d="M256 485c-126 0 -229 -103 -229 -229s103 -229 229 -229s229 103 229 229s-103 229 -229 229zM256 63c-106 0 -193 87 -193 193s87 193 193 193s193 -87 193 -193s-87 -193 -193 -193zM299 242c0 -24 -19 -43 -43 -43s-43 19 -43 43c0 23 19 43 43 43s43 -20 43 -43z
M356 313h-64c-3 0 -7 13 -7 15c-2 2 -7 14 -15 14h-28c-8 0 -13 -12 -15 -14c0 -2 -4 -15 -7 -15h-64c-8 0 -14 -6 -14 -14v-114c0 -8 6 -15 14 -15h200c8 0 14 7 14 15v114c0 8 -6 14 -14 14zM256 185c-32 0 -57 25 -57 57c0 31 25 57 57 57s57 -26 57 -57
c0 -32 -25 -57 -57 -57z" />
    <glyph glyph-name="qticons-checkmark" unicode="&#xe013;" 
d="M216 211l-46 45l-28 -29l74 -71l154 171l-29 29zM256 485c-126 0 -229 -103 -229 -229s103 -229 229 -229s229 103 229 229s-103 229 -229 229zM256 63c-106 0 -193 87 -193 193s87 193 193 193s193 -87 193 -193s-87 -193 -193 -193z" />
    <glyph glyph-name="qticons-contrast" unicode="&#xe014;" 
d="M256 485c-126 0 -229 -103 -229 -229s103 -229 229 -229s229 103 229 229s-103 229 -229 229zM256 63c-107 0 -193 87 -193 193s86 193 193 193c106 0 193 -87 193 -193s-87 -193 -193 -193zM256 370c-63 0 -114 -51 -114 -114s51 -114 114 -114s114 51 114 114
s-51 114 -114 114zM170 256c0 47 43 86 86 86v-172c-43 0 -86 39 -86 86z" />
    <glyph glyph-name="qticons-fastforward" unicode="&#xe015;" 
d="M256 485c-126 0 -229 -103 -229 -229s103 -229 229 -229s229 103 229 229s-103 229 -229 229zM256 63c-106 0 -193 87 -193 193s86 193 193 193s193 -87 193 -193s-87 -193 -193 -193zM185 185l85 71l-85 71v-142zM270 256v-71l86 71l-86 71v-71z" />
    <glyph glyph-name="qticons-juno" unicode="&#xe017;" 
d="M256 485c-126 0 -229 -103 -229 -229s103 -229 229 -229s229 103 229 229s-103 229 -229 229zM256 63c-106 0 -193 87 -193 193s87 193 193 193s193 -87 193 -193s-87 -193 -193 -193zM227 363v-30h-35v30h35zM335 362h8v-164h-9c1 7 0 16 1 25c-9 -14 -21 -27 -41 -28
c-45 -3 -64 39 -54 82c5 24 21 40 45 42c22 1 43 -9 49 -29c1 23 0 50 1 72zM263 302c-24 -21 -20 -73 2 -91c12 -10 33 -11 46 -3c27 16 30 70 9 92c-7 7 -20 12 -33 11c-11 -1 -18 -4 -24 -9zM290 188c-19 0 -34 7 -45 21c-13 17 -18 43 -12 70c7 27 26 44 52 46
c17 1 33 -4 43 -14v24v27v7h21v-178h-22l1 8v5c-9 -9 -20 -14 -33 -15c-2 -1 -4 -1 -5 -1zM291 304h-3c-10 0 -16 -2 -21 -7c-9 -8 -14 -23 -14 -40s6 -34 16 -41c5 -4 13 -7 21 -7c7 0 13 2 18 4c10 6 17 19 19 35c2 19 -2 37 -12 47c-6 6 -15 9 -24 9zM192 317h35
c0 -34 1 -78 0 -116c0 -19 -1 -35 -12 -44c-10 -8 -26 -8 -46 -8v31c8 -3 19 -1 22 6c3 6 1 22 1 31v99v1z" />
    <glyph glyph-name="qticons-lastfm" unicode="&#xe018;" 
d="M256 485c-126 0 -229 -103 -229 -229s103 -229 229 -229s229 103 229 229s-103 229 -229 229zM256 63c-107 0 -193 87 -193 193s86 193 193 193c106 0 193 -87 193 -193s-87 -193 -193 -193zM335 270c-2 0 -4 1 -6 2c-14 5 -23 8 -23 20c0 10 7 17 17 17
c7 0 13 -3 17 -11c1 -1 2 -1 3 0l14 8s1 0 1 1v1c-8 15 -19 23 -34 23c-23 0 -38 -16 -38 -40s14 -34 41 -44c15 -5 22 -8 22 -20c0 -14 -11 -24 -26 -23c-16 0 -21 10 -27 25c-10 26 -22 56 -22 56c-12 30 -35 47 -63 47c-38 0 -69 -34 -69 -76s31 -76 69 -76
c20 0 39 10 53 28v2l-9 22l-1 1c-1 0 -1 -1 -2 -1c-8 -18 -24 -28 -42 -28c-26 0 -47 23 -47 52s21 52 47 52c19 0 37 -12 44 -31l21 -54l3 -6c9 -25 23 -36 46 -36c26 0 46 19 46 45s-13 36 -35 44z" />
    <glyph glyph-name="qticons-linkedin" unicode="&#xe019;" 
d="M256 485c-126 0 -229 -103 -229 -229s103 -229 229 -229s229 103 229 229s-103 229 -229 229zM256 63c-106 0 -193 87 -193 193s87 193 193 193s193 -87 193 -193s-87 -193 -193 -193zM313 313c-36 0 -55 -27 -57 -28v28h-43v-171h43v100c0 3 9 33 43 28
c18 -1 28 -25 29 -28v-100h42v118c-1 17 -10 53 -57 53zM142 142h43v171h-43v-171zM163 370c-12 0 -21 -9 -21 -21s9 -22 21 -22s22 10 22 22s-10 21 -22 21z" />
    <glyph glyph-name="qticons-list" unicode="&#xe01a;" 
d="M256 484c-126 0 -229 -102 -229 -228s103 -229 229 -229s229 103 229 229s-103 228 -229 228zM256 63c-106 0 -193 87 -193 193s87 193 193 193s193 -87 193 -193s-87 -193 -193 -193zM177 193c0 -8 -7 -15 -16 -15s-16 7 -16 15c0 9 7 16 16 16s16 -7 16 -16zM177 256
c0 -9 -7 -16 -16 -16s-16 7 -16 16s7 16 16 16s16 -7 16 -16zM177 319c0 -9 -7 -16 -16 -16s-16 7 -16 16c0 8 7 15 16 15s16 -7 16 -15zM365 326c0 5 -4 8 -8 8h-141c-4 0 -8 -3 -8 -8v-15c0 -5 4 -8 8 -8h141c4 0 8 3 8 8v15zM365 264c0 4 -4 8 -8 8h-141
c-4 0 -8 -4 -8 -8v-16c0 -4 4 -8 8 -8h141c4 0 8 4 8 8v16zM365 201c0 4 -4 8 -8 8h-141c-4 0 -8 -4 -8 -8v-15c0 -5 4 -8 8 -8h141c4 0 8 3 8 8v15z" />
    <glyph glyph-name="qticons-location" unicode="&#xe01b;" 
d="M256 356c-39 0 -71 -34 -71 -71c0 -20 9 -29 28 -63c17 -29 30 -56 30 -56c7 -13 18 -13 25 0c0 0 14 27 31 56c19 34 28 43 28 63c0 37 -32 71 -71 71zM256 242c-24 0 -43 19 -43 43c0 23 19 42 43 42s43 -19 43 -42c0 -24 -19 -43 -43 -43zM256 485
c-126 0 -229 -103 -229 -229s103 -229 229 -229s229 103 229 229s-103 229 -229 229zM256 63c-106 0 -193 87 -193 193s87 193 193 193s193 -87 193 -193s-87 -193 -193 -193z" />
    <glyph glyph-name="qticons-fullscreen" unicode="&#xe01c;" 
d="M356 370h-43v-14h43v-43h14v57h-14zM256 484c-126 0 -229 -102 -229 -228s103 -229 229 -229s229 103 229 229s-103 228 -229 228zM256 63c-106 0 -193 87 -193 193c0 107 87 193 193 193s193 -86 193 -193c0 -106 -87 -193 -193 -193zM342 299v43h-43l11 -11l-54 -54
l-54 54l11 11h-43v-43l11 11l54 -54l-54 -54l-11 11v-43h43l-11 11l54 54l54 -54l-11 -11h43v43l-11 -11l-54 54l54 54zM370 156v43h-14v-43h-43v-14h57v14zM156 142h43v14h-43v43h-14v-57h14zM142 356v-43h14v43h43v14h-57v-14z" />
    <glyph glyph-name="qticons-earth" unicode="&#xe01d;" 
d="M209 305h1v0c0 1 0 1 1 0c-1 1 0 2 1 2c-2 2 -2 -2 -3 -2zM256 370c-63 0 -114 -51 -114 -114s51 -114 114 -114s114 51 114 114s-51 114 -114 114zM335 278c0 0 2 -2 0 -3v2v1zM331 273c0 0 -1 -1 -1 0h1zM330 272v0v0v0zM329 272v0v0v1v-1zM315 282h1v0l1 -1
s-1 0 -1 -1v1c-1 0 -1 -1 -1 -1v1v1zM312 284c-1 0 1 1 1 1c0 -1 1 -2 0 -2c1 0 1 0 1 -1v1c1 0 1 -2 0 -1c0 -1 -2 0 -2 0v0v0v0l1 1h-1s-1 0 -1 1c0 -1 0 0 1 0zM313 278v0v0v0zM311 283v-1c-1 0 -1 0 -1 1h1zM310 285v0v0c-1 0 0 0 0 0zM303 274v-1v0v1zM303 273
c-1 0 -1 -1 -1 0h1zM298 274v1v-1v0zM295 287c0 0 1 0 1 -1c0 0 -1 -1 -1 0v1zM293 287c1 0 1 -1 1 -1h-1v-1v0v2zM292 290c1 0 1 0 1 -1h-1v1zM291 287v1v0h1v0h-1s0 -1 1 -1h-1zM291 286v-1v1zM292 288v0v0zM292 286c1 0 -1 -1 0 0zM292 285h1h-1v0zM292 289v0v0v0z
M291 289v0c0 -1 -1 0 0 0v0zM290 288h1c0 -1 -1 -1 -1 0v0zM289 286c1 0 0 0 0 0zM289 277v1v0v0c1 0 3 1 3 1h1c0 1 1 0 1 0s1 0 2 1h1c0 0 0 -1 -1 -1c0 -1 -2 -1 -2 -1c-1 0 -1 0 -2 -1c0 1 -1 0 -1 0h-1v0v-1h-1v0h-1s1 0 1 -1c-1 0 -1 -3 1 -3c0 -1 -1 0 -1 0v-1v1h-2
c0 0 0 1 1 0c0 1 -1 1 -1 2v-1v1l-1 -1v1h1v1v1h1v0v1s-1 -1 -1 0c1 0 1 0 1 1c0 -1 0 -1 1 -1zM291 270v0h-1v1c1 0 1 -1 1 -1zM287 286v0v0v0zM288 286v-1l-1 1h1zM288 287v0v0c0 -1 -1 0 -2 -1c0 1 0 1 -1 1h1h-1h2v0h1zM284 288c1 0 3 0 3 -1h-2h-1v0s-1 0 -1 1h1z
M285 271c0 -1 -1 -1 -1 -1s0 1 1 1zM275 287v0s1 0 0 0zM270 290c0 1 0 0 1 1c-1 0 0 0 0 0l1 -1c0 -1 0 0 1 0c0 0 -1 0 0 0c0 1 0 0 0 -1c0 0 0 1 1 1c0 0 -1 0 -1 -1c1 1 1 0 1 1v-1v-1v0h-1c0 -1 -3 1 -3 1h1s-1 0 -1 1c-1 0 0 0 0 0l-1 1c1 0 1 -1 1 -1zM274 286v1v-1z
M270 285c0 0 0 1 -1 0c0 1 0 1 1 1c1 1 1 0 2 0c0 -1 -1 -1 -2 -1zM270 276v1v0v-1zM269 287c0 0 2 0 1 0c0 -1 -1 0 -1 0zM265 289c0 1 1 1 0 2h1v0h1h-1v-1h1v1v-1c1 0 1 1 1 1v-1c1 0 1 1 1 1v-2c0 0 0 -1 1 -1c-1 0 -1 -1 -1 -1c-1 0 -2 -1 -2 -1v-1h-1v1s-1 0 -1 1h1
s1 1 1 0c-1 1 -1 1 -2 1c1 1 2 -1 3 0c-1 0 -1 0 -1 1v0s-1 0 0 0h-2c0 0 1 0 0 0zM268 277v0v0v0zM269 276h-1v0c1 0 0 1 1 0zM266 277v-1h-1zM266 276h-1v0h1zM265 290v-1v1zM263 275v0h1c0 -1 -1 -1 -1 -1v0v1zM262 275v-1v1zM262 274v0h-1c1 0 0 1 1 0zM234 309
c0 -1 1 -1 0 -2v2zM212 319h1s-1 0 -1 -1v1zM215 308c-1 -2 -1 0 -1 0h-1v0c0 -1 -1 1 -1 1c-1 0 -2 1 -1 1h-2c1 1 3 3 2 3h-1c0 1 0 2 1 1c0 1 2 -3 1 -2h-1h1v0v-1v0v-1c0 1 2 0 3 -1c0 0 1 -2 0 -1zM209 313c1 1 1 -1 1 -1c-1 0 -1 0 -1 -1c-1 0 0 1 -1 1zM209 313v0v0z
M211 315h1v-1c-1 0 -1 1 -1 1zM212 313h1c0 0 -1 0 -1 -1v1zM211 316v0c0 1 0 1 1 1v-1s-1 -1 -1 0v0zM209 319v0v0c1 1 0 1 0 1v0s1 0 1 -1v0v0s1 -2 0 -3c0 1 0 3 -1 2v1v0c-1 0 0 0 0 0v0v0zM209 317v1v-1zM209 315v1v-1v1c1 -1 -1 -3 -1 -3v0c-1 0 -1 0 -1 1h1
c-1 0 -1 0 -2 1h1v0l1 1v-1v1zM208 312c-1 0 -1 1 -1 0h1zM206 311v0v-1v0c0 -1 -2 -1 -3 -1c1 1 1 1 1 2h-1c0 1 1 1 1 1l1 -1c0 1 -1 2 1 2v-1v0c1 0 1 1 1 0h-1c1 0 0 -1 0 -1zM203 305c-1 0 -1 0 -1 1v-1v1v0v0v0c-1 0 -1 0 0 1h-1h1c1 0 0 0 0 0h1v-1s-1 -1 0 -1z
M201 308v1v-1v0h-1l-1 1c1 0 0 0 1 1c-1 0 -2 -1 -2 0c-1 -1 -2 1 -2 1c1 -1 0 2 0 2v1c1 -1 1 -1 2 -1v-1c1 0 0 1 1 1c0 0 -1 1 -2 1c0 1 0 1 1 1v-1c1 1 0 1 0 1h-1s0 1 1 0c-1 1 0 1 0 1h-1l1 1h1s1 0 0 0h1c1 0 0 -1 0 -1v-2c0 1 1 1 1 2v-2c0 1 1 1 1 0l-1 -1h1v-1
c0 -1 -1 -3 0 -2c-1 -1 1 -1 -1 -2v0v0v0zM201 307v0v0zM199 308v0v0v0zM201 320l1 1c0 -1 0 -1 -1 -1v0zM202 313v1s1 0 1 1c0 -1 -1 -2 -1 -2zM203 309h-1h1zM203 317h-1c-1 1 1 0 1 0c0 1 0 1 1 1h-1v0v0c-1 0 0 1 0 1l-1 -1v1v0v0h-1h1v0v1l1 -1v1v0v0s1 -2 1 -3
c1 1 1 2 2 2c0 0 -1 -1 0 -1l-1 -1v0h1l-1 -1s-1 1 -2 1zM208 318v0v0zM207 316v0c0 -1 0 -1 -1 -1c0 1 1 1 1 1c-1 0 0 0 0 0s0 1 1 0h-1zM208 317h-1h1c0 0 -1 0 0 0zM207 321v0s1 -1 0 0zM206 321v1c1 0 1 -1 0 -1zM205 322c1 0 1 -1 0 -1v1zM206 321l1 -1h-1
c0 -1 0 -1 -1 0c-1 0 0 1 1 1zM201 322c0 1 1 0 1 1l2 -1c1 0 0 -1 0 -1v0h-2c1 0 1 0 1 1l-1 -1v0h-1v1v0v0zM198 320h1c1 0 1 -1 1 -1l1 -1l-1 -1c1 0 -1 0 -1 0h-1c-1 0 0 -1 -1 0c-1 0 -2 0 -1 0c0 1 2 3 2 3zM179 325h1c0 0 0 -1 -1 -1v0v1zM177 321v0v-1v1zM173 315
v-1v0v1zM172 315v-1v1zM169 317c0 0 0 1 1 1zM170 316v0s1 0 0 0zM183 192v0v0v0v-1v1v0zM187 187v0v0s-1 0 0 0c-1 0 -1 0 -1 1v0v-1v1h-1c1 0 0 0 0 1v-1v1v0c1 0 1 -1 1 -1v0v0v1v0h-1h1c1 -1 2 -2 2 -3c0 1 0 1 -1 1zM189 186v0v0v0zM190 187v0v0v0v0v0zM191 186
c0 0 -1 0 -1 1h1v0v0s1 -1 0 -1v1v-1zM193 198h1h-1zM206 268v0c-1 1 0 1 0 1v-1v0zM206 270c0 -1 -1 -1 -1 -2c-1 1 1 2 1 2v0v0zM205 274c1 0 1 -1 1 -1v-1c0 1 -1 2 -1 2zM209 268v1c1 -1 0 -1 0 -1zM212 268l-1 -1v1v-1v1c0 1 -1 0 -1 0v0s0 1 1 1h-1s-2 1 -3 1
c1 0 0 0 0 1c1 -1 1 0 1 0v0c1 0 0 0 0 0v0h1v0c0 1 1 3 2 2c0 0 -1 -1 -1 -2c0 0 1 1 0 0v0c1 0 1 -1 1 0v-1s0 1 1 0h-1v-1h1l-1 -1h1v0zM212 275c0 -1 -3 -1 -2 -1c-1 0 -2 -1 -3 0c0 -1 -1 0 -2 1c1 0 -2 0 -2 0c-1 0 -1 -1 -2 -1h1c-1 0 -1 0 -1 -1c0 1 4 2 4 0v0v0h-1
v0h-1v-1h1v-1c0 1 0 1 -1 0h1s-1 -1 0 -1v0h-1c1 -1 1 -1 2 -1v-1h-2v0h-1v0h-1c0 1 2 2 2 1h1c-1 0 -1 0 -1 1v0v0h-1v0v0h-1v-1l-1 1v0v0c0 -1 -1 -1 -1 0c0 -1 -1 -1 -1 -2v0v1c0 -1 0 -1 -1 -1c0 1 -1 1 -1 0c0 0 -1 -2 -2 0v-2c-2 0 0 1 0 2h-1v-1v-1c-1 0 0 -1 0 -1
c-1 0 -1 0 -1 -1v0v0v0v0h-1c0 -1 -1 -1 -1 -1s-4 -1 -3 -2v-2c0 -1 -1 -2 -1 -3c-1 0 0 3 0 3v0v3c-1 0 -1 1 -2 2v-1v1h-1v-1v1h-1v0c0 1 -1 1 0 1c-1 0 -1 0 -1 1c0 -1 -1 0 -1 0s-4 0 -5 -1c0 0 -5 0 -5 1v-1c0 1 3 -4 2 -5c0 0 1 -2 2 -3c0 0 1 -1 1 -2c1 0 2 0 2 -1
l2 1c1 1 1 1 2 1c1 -1 -1 -3 -1 -4v1s0 -1 -1 -2v0c1 -1 3 -2 2 -4c0 0 -1 -2 -1 -3l1 -2s1 -1 1 0c1 -1 1 -3 1 -3l1 1s1 1 1 0c1 1 3 0 2 0c0 0 -1 -1 -1 -2h1v2c0 0 1 0 1 -1v1c1 -2 2 -4 4 -4v0v-1c1 0 1 0 1 -1h-2c1 0 2 0 2 -1c0 0 1 0 1 -1c0 0 -1 0 -1 -1
c0 0 1 0 0 0c1 0 1 0 1 1c0 -1 1 -1 0 -2h2c1 -1 2 -4 2 -6v0v0v-1v0h-1s-1 0 0 0c-1 0 -1 -1 -1 -2c1 1 1 1 1 0c0 2 1 2 1 1c1 0 0 -1 -1 -1h1h1h-1c1 1 2 -1 2 -1h1v-2v1l1 -1v0c1 -1 3 -2 3 -4c2 0 1 -3 1 -3c0 -1 -2 -1 -3 -2v0l-1 -1c1 0 0 -2 0 -3c0 0 -2 -2 -2 -3
h-1c0 1 -1 1 -1 1v-1l-1 1c0 -1 -1 -1 -2 -1v-2l-1 -2v1c-1 0 -2 -1 -2 -1h-1c-1 0 -1 1 -1 2c-1 -1 0 -1 0 -2c1 -1 0 -1 0 -2v0l-2 1v0v-1v-1c-1 1 -1 1 -1 0v1v0h-1c1 0 1 -1 1 -1v-1v1v0v-1c-1 0 0 0 0 -1c-2 1 0 -1 0 -1v-1h-1v-1v1v-1v0v0v0c0 -1 -8 -1 -7 -1h-9v0
s8 1 7 1c1 -1 4 -1 4 -1s2 0 2 1c0 -1 1 -1 1 -1v0h1c-1 0 -1 1 -1 1v0v1v-1v1v-1v1v0h-1h1h-1h1v0l-1 1h1h-1v1v0v0v0v0v0v0v0v-1c0 1 -1 1 -1 2v0c1 0 1 -1 1 -1v1v0c0 1 -1 1 -1 2v-1v1c1 -1 0 0 1 0h-1v0h1v-1h-1h1v1v0v1c0 1 0 1 -1 1v2c0 2 1 3 1 4v4c0 1 1 4 0 5
c0 2 0 3 -1 4c0 1 -1 2 -1 3c-1 1 -1 4 -1 4c0 1 -1 3 -1 5c-1 1 1 2 1 2h-1v1c0 -1 0 1 1 1v1c1 0 1 1 1 1c0 1 1 0 1 0v2l1 1s-1 2 0 2l-1 1h-1v-1v0l-1 2v0v1c0 -1 -1 1 -1 1c0 -1 0 1 0 1c0 1 0 3 -1 3c-1 2 -1 4 -2 6c0 -1 -1 0 -1 0c-1 1 -2 3 -2 5c-1 1 0 3 0 5
c0 4 -1 7 0 11v0v1c-1 -2 -1 -4 -1 -6l-1 -4s1 2 0 3c1 1 0 2 0 3c1 -1 1 2 1 3v3v2v3c1 0 0 1 0 1h1v0c-1 1 1 4 1 5c2 3 2 4 3 6l1 -1v0v0v0v-1c0 1 0 2 1 3c-1 0 -1 1 0 1c-1 0 0 1 -1 1v-2v-2c-1 1 0 2 0 2c0 1 -1 1 0 2v0c0 1 1 2 1 2v1v-1v1v0v0l1 1c-1 0 0 1 0 1v0v0
v1v0v0l1 1c-1 -1 0 1 0 0c0 0 1 3 1 4c0 -1 -1 -1 -1 -1v1v-2c-1 0 -1 -1 -1 -1h1c-1 0 0 0 -1 -1v1v0s0 1 1 1v0v3v0v1v3v1v0v0v0c-1 0 -1 0 -1 -1v1h-1h1c-1 0 -1 0 -1 -1v1v0l1 1v0h1v0v1c-1 0 -1 -1 -2 -1v0l-2 -1c0 -1 -2 0 -2 -1v0h-1v0v1v-1c-1 0 -1 0 -1 1h1v-1
c1 1 1 1 2 1c0 0 1 1 2 1h-1v1v-1v2v0l1 1h-1s0 1 1 1v0c0 1 0 2 1 2v0c1 0 1 0 1 1v-1c1 0 1 0 2 1h-1v1v0v1c1 0 1 1 1 1v0v0h1c0 -1 -1 -1 0 -2v1v0v-1l1 2h-1c0 0 1 2 2 2c0 -1 0 0 1 0h2c0 0 -1 0 0 0v0c1 -1 0 -1 0 -1h1c-1 0 -1 0 -1 -1c1 1 0 0 1 0v-1s1 -2 0 -3
l1 1v-2v-3v1c1 0 0 -1 1 0v0v0v0c1 0 1 0 1 -1c0 1 1 1 1 1c0 -1 0 -1 -1 -1c1 -1 2 0 2 0s-1 -2 -1 -3l1 1v-1v0c1 0 0 -3 1 -3v0c1 0 1 -1 0 -1c0 0 -1 0 0 -1v0s1 -1 1 0c1 -1 0 -2 0 -2v0v-1s0 1 1 1h1v1c0 -1 0 0 -1 0v0v0s1 1 1 0c1 1 1 -1 0 -1h1c0 -1 0 -1 -1 -1h1
v-1c1 0 1 -1 2 -1v1v-1h1h-1h1c-1 -1 -1 -1 -1 -2v0l1 1h1v1h1v0h1c-1 1 -1 1 -1 2v-1h-1c1 1 0 1 1 2h1v0c1 1 2 2 2 3v0h1h1v-1l1 -1c-1 0 -1 -1 -2 0c-1 0 -1 1 -1 0c-1 0 -1 0 -1 -1v-2v0v0h-1h1c0 -1 -1 -1 -1 -1v-1c0 0 0 -1 -1 -1c1 -1 1 1 2 1c0 -1 0 -2 -1 -2v-2v0
c1 1 3 2 3 3c1 0 1 -1 1 -1v-1v-1v0s-1 0 -1 -1v-1h-2v1h-1s1 -1 0 -1c0 0 0 1 -1 1v-1c-1 0 -1 2 -1 2c0 -1 0 -1 -1 -1v1c0 -1 1 -2 1 -2s-1 0 -1 -1v1c-1 0 -1 0 -1 -1v1c-1 -1 -1 -2 -1 -1h-1v0l-2 -1s-1 0 -1 -1c0 0 0 -1 -1 -1c2 0 1 -2 0 -2c2 0 1 -3 2 -4
c0 -1 3 -2 1 -4c0 0 -1 -1 -1 -2c1 -1 2 -1 2 0l1 2c1 0 2 1 2 1v0v0c1 1 1 2 1 3s1 1 1 2h1c-1 1 0 1 1 1c0 1 0 -8 1 -9c0 -1 2 -12 1 -12v0l1 9v5c-1 -1 0 2 0 1c0 0 -1 1 -1 0v-1s1 1 1 0v0h1c0 1 1 2 1 2v-3h-1c1 0 1 -1 0 -2c1 0 1 0 1 -1l-1 1v-1v0c0 -1 1 -2 1 -2v0
v0c0 -1 1 -1 1 -2c-1 1 -2 0 -3 1c0 -2 3 0 3 -2v0v0zM204 271c0 -1 0 -1 1 -1v-1h-1v1s-1 1 0 1zM197 268c0 -1 -1 0 -1 0h1zM185 239v0v0zM193 235c0 1 -1 -1 0 1c0 0 1 -1 0 -1zM192 244v1v0c0 -1 1 -1 0 -1zM186 250c1 1 -1 2 -1 3c0 2 -2 1 -2 2c0 0 2 1 2 -1v1
c1 -1 1 -3 2 -4c0 0 0 -1 1 -1c1 -1 -1 0 -2 0zM186 248h-1v1c1 0 2 -1 1 -1zM184 254v0v0v0zM187 255v-1v1zM188 247c1 0 1 1 1 1s2 -1 2 -2h-2v0l-1 1s-1 0 -1 1c1 0 1 -1 1 -1zM183 197v0s-1 0 0 0c-1 0 -1 1 -1 1v0h1c-1 0 0 -1 0 -1zM176 313c0 1 0 1 1 1v0v0v0v0v-1
h-1zM177 314h1v0v0h-1zM178 301v1s0 1 1 1v0c-1 -1 -1 -2 -1 -2v0zM180 305v-2c-1 0 0 0 0 1v1v0v0v0zM181 307v0v1c1 -1 0 -1 0 -1zM208 304c-1 0 0 -1 0 -1h-1s0 1 1 1zM206 293v0c1 0 0 0 0 0zM202 295l1 1h-1c1 1 1 0 1 1c1 0 1 1 1 1v0v-1c1 1 1 -1 0 -2c0 0 1 1 1 0
h-1v0v1c-1 0 -1 -1 -2 -1zM204 294h-2c0 1 1 0 2 0zM204 298h1h-1zM205 293c0 -1 0 -1 -1 -1zM201 287c1 -1 0 -1 0 -1v1zM198 283v0v0zM213 288c0 1 1 1 0 0v0zM218 292c-1 -1 -1 0 -1 -1v1c0 -1 -1 -1 -1 -1v0v0v0c-1 0 -1 -1 -1 -1v1v0h-1h1c-1 1 0 1 -1 1h1
c-1 0 -1 0 -1 1v0v0v0h-1v0s0 -2 1 -3v1v0v-1h-1v0v0v-1s0 1 -1 1v0s0 1 -1 1c0 -1 1 -2 1 -3c-1 0 -1 0 -1 1c-1 1 -2 0 -2 1v0v1v0v0v1v0v0v1v0c-1 0 0 0 0 0s-1 -1 -1 0h-1s0 1 1 2c0 -1 0 -1 1 -1v0s1 0 1 -1v2h2v1v0l1 2h-1v1v0c1 0 0 1 1 1v0h-1h1c-1 0 0 0 -1 1v-1v1
v0v1h-1h1c-1 -1 -1 0 -1 0c-1 0 -1 0 -1 -1v2v-1c-1 0 -1 1 -1 2c0 -1 -1 -1 -1 -1v2v0v0c0 1 0 3 1 3h1c1 0 2 0 2 -1c1 0 1 0 1 -1v0h2v-1c-1 -1 -2 -1 -2 1l-2 -2h1s0 1 1 1v-1v0v-1v1s1 0 1 -1v1c-1 1 1 1 0 0c0 -1 1 -1 2 -1c-1 0 -1 -1 -1 -1v0v0v-1v0v0v0v-1v1h1v-1
v0v0v-1v0v0s1 0 1 -1l-1 1c1 -1 0 -1 0 -1h1s-1 -1 -1 0v-1v0v0v-1c-2 1 0 0 -1 -1c0 0 1 0 0 0v0v0h1c-1 0 -1 -1 -1 -1h1c-1 0 0 0 0 1v-1v0v0v0v-1v0h1v0l-1 -1c1 0 1 0 1 1c0 -1 0 0 1 -1c-1 0 -1 0 0 0zM210 300v-1v1zM211 298c0 -1 0 -1 -1 -1c0 1 1 1 1 1zM211 301
h-1h1v0zM212 298v0v0zM212 300v0v0zM216 309v-1v1zM220 310h-1h-2c1 -1 1 -1 0 -1v0h-1v1v0h-1v0v1h-1v-1v0c0 0 0 2 -1 1v1v0h-1l1 1v-1c1 1 1 0 1 0v1l2 -2v0v1v0v0v0v1h-1v1h1v0c1 0 1 -1 2 -1v0c-1 0 -1 0 -1 1c0 -1 1 0 1 0h-1v1v-1h-1v0h-1h-1v1c-1 -1 -1 -1 -1 0
c0 0 1 1 1 0c1 1 0 1 -1 1v1l1 -1v1v1c0 -1 0 -1 1 -1l-1 1h1v1v0v0c1 0 1 0 0 1h1c-1 0 1 -2 0 -2c0 -1 0 -2 1 -2v0v-1l1 1c0 -1 1 -1 1 -1v-1s0 -1 1 -1c-1 1 -1 2 0 1l2 -1l-1 1s1 0 1 -1v1h1c-2 1 -3 1 -4 2v0v-1c-1 0 -1 1 -1 1v0c0 1 -1 1 -2 1c1 0 1 0 1 1v0v0h1h-1
v0c-1 1 2 0 2 0v-1v0h1v0l-1 1v0h1v0l1 -1v0v-1l1 1v-1v0v0h1s1 0 1 -1v1c1 0 1 -1 1 -2c1 2 3 0 4 -1h-2h2l2 -2c-1 -1 -3 0 -3 0v0h-1h2c-1 -1 -2 0 -2 0h-2v0h-1v0v0h-1c0 -1 0 0 -1 0v0v0h-1v1v0v0v0v0c0 -1 1 -1 0 -2v1v0v1c0 -1 0 -1 -1 -1v1v-1h-1h1c1 0 1 -1 1 -1
h-1v0v0zM213 313v1h1zM221 308v0v0zM222 279c0 1 1 1 0 1v0v0v0v0v1l-1 -1v1v1v0v0v0v1h-1c1 1 1 0 0 0c1 0 0 0 1 1h-1v0h1l-1 1h1v0v1c1 0 0 -1 1 0h-1v1v0v0v0v0v0v1v0v0v1v0c1 0 1 1 1 1h-1h2h-1h2v0c-1 0 -2 0 -2 1l1 -1c1 0 1 1 1 1v0h1h-1l1 1c0 1 -1 2 -1 2
c-1 -1 1 -1 -1 -2c0 0 -1 0 -1 1c1 -1 1 -1 1 0h-1l1 1h1v0c-1 0 0 1 1 0v-1c1 0 0 0 0 0h1c-1 1 -1 1 0 1c0 0 -1 0 0 0v0v1h-1h1h-1v1c-1 -1 -2 0 -1 0v1c0 -1 1 0 1 0c-1 0 -1 0 0 0c1 -1 0 1 1 2h-1l1 1c0 1 -1 4 -2 4v0h-1v0c0 1 0 1 -1 1v0h-1s-1 1 0 1v1v0s2 0 2 -1
h1c-1 1 -1 1 -2 1h1c-1 1 -1 0 -2 1c1 0 0 0 0 0c1 1 0 1 1 1s3 0 3 -1c0 0 2 0 2 1c-1 0 -1 0 -2 1h2h1h1v-1c0 1 0 2 1 1v-1v1h1c1 0 1 -1 1 -1c1 1 1 0 1 0c0 1 0 0 0 -1h1v-1c1 0 1 1 1 1h1s0 -2 1 -3c0 1 0 0 1 0c0 0 -1 2 -1 3l1 -1v0c1 0 1 1 1 1l1 -1h1v0v0h1
c-1 1 0 0 1 0v0s4 -2 5 -3h-1h2c0 -1 -1 -1 -1 -1h1s1 -1 1 -2c-1 0 -2 1 -4 1c-1 1 -2 1 -3 1h1c1 0 2 -1 3 -1h-1c2 -1 2 0 3 -1c0 0 -2 -1 -1 -1h-1v0h3c-1 0 0 0 0 0v0c1 0 4 -1 4 -2h-2c-1 0 -1 1 -2 0h1c0 -2 -1 0 -2 0v0v0l-1 -1c1 1 2 1 2 0c0 0 -1 -1 -2 0
c0 -1 1 0 0 -1l-1 -1s0 1 -1 0c1 0 1 0 1 -1v1c-1 -1 1 -1 0 -2c0 0 -1 0 -1 1c0 -1 0 -1 -1 -1v0h1v-1v-1c-1 0 -1 1 -1 1v-1h-1h1v-1c2 0 0 0 -1 1c0 0 -1 -1 0 -1v0c0 -1 0 -1 -1 -1c0 0 -1 0 -1 1h-1v-1v1c1 0 1 0 1 -1h1v-1v0h-1h1s0 -1 -1 -1h1c-2 0 -1 2 -1 2h-1
c0 0 0 -10 -1 -10c0 1 0 -9 0 -9v0v9c1 0 2 5 1 5c0 -1 1 1 1 1v0v1v-1c-1 0 -2 1 -1 1l-1 2l-1 1c-1 -1 1 -1 1 -2c0 0 -1 0 -1 1l-1 -1v0c0 1 1 0 2 0c0 -1 0 -1 -1 0v-1h1c1 0 1 -1 1 -1v0h-1v-1c0 1 -2 0 -2 1c0 -1 -1 -1 -2 -1c0 0 -1 1 -1 0l-1 1v1c-1 -2 0 -1 -1 -2
s-2 0 -2 -1c-1 0 -1 1 -1 0c0 1 -1 1 -2 1c0 -1 0 0 -1 0c1 -1 0 -1 0 -1v-1h-1v0v-1h-1v0c1 0 -1 -1 -1 -1s0 -1 -1 -1v-1v0c0 1 -1 1 0 1h-1v0v0c1 0 0 0 0 0zM249 267v1v-1v0zM247 257c-1 -2 -2 0 -3 0h-1h-1h-1c1 0 2 0 2 1c0 0 1 0 0 0c2 -1 1 0 1 0h-1v0v0
c0 1 0 1 1 2h-1h1s1 0 0 0h1v1v1h-1s0 1 1 1h-1v1v0v0h1c-1 0 0 1 0 2c0 0 1 0 1 1v-1v1c0 -1 1 -1 1 -1s-1 0 -1 -1h1c0 -1 -1 -1 -1 -2v0s1 -3 1 -4v1v-1c2 -1 -2 -2 0 -2zM239 260v0h1l1 1s-1 0 -1 1h1v1v-1c1 1 1 0 1 1c-1 0 1 1 0 0h1v0c1 0 1 -1 0 -2v1
c-1 -1 -1 -2 -1 -2l-2 -1h-1c0 1 1 1 1 1h-1zM239 276c0 1 -1 1 -2 1h1l-1 2h1v0v0v0h-1l1 1v0l1 -1v1v-2v0c1 2 0 0 0 1c1 1 0 0 1 0v0h1v-1v1l1 -1c1 1 1 0 1 0v-1v-1v0h-2v0h-1v0v0h-2h1zM237 279v1v-1v0zM238 280c0 0 1 1 1 0h-1zM244 264v0v0s-1 1 0 0zM244 265v1v-1v0
zM244 266v1h1c0 -1 -1 -1 -1 -1zM247 291c-1 0 0 0 0 0v0c-1 0 -1 0 0 0zM227 293v-1v1zM246 291c-1 0 -1 -1 -1 -1v1h1zM244 290v0c0 1 1 0 0 0zM228 237h-1h1zM227 237v0v0zM223 278h-1c1 1 0 0 1 0zM264 186c0 0 -1 0 -1 1v-2l-2 -2c0 -1 -1 -1 -1 -2l-2 -1
c-1 0 -1 2 -1 2v1c1 1 3 2 1 2c1 2 3 1 4 2v0l1 1v0s0 1 1 1c0 0 0 -2 0 -1v-1v-1zM258 195v0c1 0 0 0 0 0zM292 200c-2 -1 -1 3 0 3c0 -1 1 -1 0 -3zM316 167c-1 0 -2 -1 -2 -1v1c1 1 1 0 2 1v-1zM316 168v1c1 0 1 -1 1 -1h-1zM326 182c0 -1 0 0 1 0c-1 -1 0 -1 -1 -1
c1 0 0 -1 0 -1h1c-1 -1 0 -2 -1 -2c1 0 -1 -1 -1 -1c0 -1 0 -1 -1 -2c0 -1 -1 -1 -1 -2c-2 0 -2 -2 -3 -2c-1 -1 -1 -1 -2 -1l-2 -1v0v0v0v1s-1 -1 -2 -1h1c-1 0 -1 0 0 0h-1v0v2v-1c0 1 0 1 1 1h-1v0l1 1c-1 0 -2 -1 -2 -1v0v1v0v0s-2 1 -2 0h-3s-1 -1 -2 -1
c-1 -1 -2 0 -3 -1v0h-2c1 0 0 0 0 0c1 1 1 2 2 4v0v2v-1v1l1 -1c0 1 0 3 1 3s3 1 4 2c1 0 3 1 3 1l1 1v-1c0 0 0 1 1 1v0c0 1 1 1 1 1c0 1 0 0 1 1c0 0 1 0 0 -1c1 0 3 1 3 2c0 0 1 1 1 0c0 0 1 0 0 1v0c1 0 1 0 0 0h1c-1 0 0 0 0 0v0h2l-1 -1l-1 -1c1 0 1 -1 2 -2
c2 0 2 4 4 5c0 -1 0 -1 -1 -2h1v0c-1 -1 0 -1 -1 -2c0 0 -1 -2 0 -1zM302 199l2 -1c0 -1 0 -1 1 -2v0c0 -1 0 -2 1 -1v0s0 -1 -1 -2h1v0v-1h1c0 -1 -1 -2 -1 -2h-1v0c-1 0 -1 2 -1 2l-1 2v1c0 1 0 2 -1 2c0 0 -2 3 0 2zM308 189c0 0 2 1 2 0h1h-1c1 0 1 -1 0 -1h-2l-3 1v0v0
c0 1 2 1 3 0zM309 194c0 1 2 2 2 2v0h1c0 1 1 1 2 1l1 2c1 0 1 1 1 1h1v-1v0h1l-1 -1s-1 0 -1 -1c0 0 -1 -1 0 -2c-1 0 -1 -1 -2 -2l-1 -1h-2c0 -1 -1 0 -1 0c-1 0 0 0 0 1h-1v0v1zM316 211c0 0 -1 -2 -2 -2v1c-1 1 2 2 2 1zM321 206c-1 0 0 0 0 0v1v0c-1 0 -1 1 0 1v0
c0 2 0 3 2 3v-1l-1 -2c-1 -1 -1 -1 0 -1v-1l1 1c0 -1 0 -1 -1 -2v1v0c-1 1 -1 -1 -1 -1v0c-1 0 -1 1 -1 1h1zM323 194v1h1c-1 0 -1 0 -1 -1zM322 196c1 1 1 1 0 1h1zM324 215l-1 -1c-1 0 0 3 1 3v-2zM323 205v-1v0s-1 1 0 1zM323 203v0v1c-1 0 -1 0 0 0v-1zM321 203l1 1
c-1 -1 -1 -2 -1 -2v1zM321 203v1v-1v0v0zM322 203v1s0 -1 -1 -1h1zM322 204v0v0zM322 203v0v0zM321 201c-1 0 2 1 2 1s0 -1 -1 -2v0v0s0 -1 -1 -1c1 0 0 0 0 0s1 0 1 1c-2 -1 -1 0 -1 1h-1v0v-1c0 1 0 1 1 1zM321 192v0c0 1 0 0 1 0h-1zM322 196v-1v0c0 1 -1 -1 -1 -1v0
c0 1 1 1 1 2v1v-1v0zM320 205v-1v1zM320 196v0c0 -1 -3 -2 -2 -1c-1 0 -2 -1 -1 -2l1 1v-1v0v0v0h-2l1 -1c0 -1 0 -2 -1 -2v2c-1 0 0 -2 -2 -2c1 1 1 1 1 2c-1 0 0 1 1 1c0 1 0 2 1 2c0 1 2 0 3 1zM320 192h-1h1v0zM312 188h1v-1h-2c1 1 1 0 1 1zM311 187v0c0 1 0 1 1 1v0
s0 -1 -1 -1zM313 187c2 0 0 -1 0 0zM313 187c1 1 2 1 3 1c0 0 0 -1 -1 -1h-2zM318 188c0 -1 -3 -2 -3 -2c0 1 2 2 3 2zM317 190v1v0v-1zM317 201c0 1 1 2 2 2v1c0 -1 -1 -3 -2 -3zM311 188v-1v1v0zM307 192h-1c1 1 0 1 1 1v0v-1zM302 193v0s1 0 0 0zM302 196v0v-1v1z
M324 190h-1s1 0 0 0h1s-1 0 0 0zM331 190v-1v0v0s1 0 0 -1h-1v0c0 1 -1 1 0 2c-1 0 -4 -2 -4 -1h-1h1v2h-1c0 1 0 1 -1 1v0v1c0 -1 -1 -1 -1 -1v0h1c0 0 -1 1 -1 0c1 1 0 1 0 1h1v0h-1c1 1 0 1 0 1c1 1 1 0 2 1v-2v0v0c1 0 1 1 2 1s2 -1 3 -1c-1 0 0 0 1 0c-1 -1 0 -2 0 -1
v-1s-1 -1 0 -1zM329 219c0 -1 -1 -1 -1 -1c0 1 0 0 1 1zM328 225h1h-1zM331 225h-1h1c0 1 0 0 1 0v0s0 -1 -1 -1v-1v0h-1l1 2c0 -1 -1 -1 0 0zM335 193h-1c0 0 -1 -1 -2 -1v0h1l1 1h1v1h-1h1v-1v0zM335 192c0 0 1 1 0 0c0 1 0 1 1 1v-1c-1 -1 -1 0 -1 0zM336 191v0v0z
M337 190v0v0zM337 191v1v-1v0zM337 190v0h1c0 -1 -1 0 -1 0zM337 227v1c0 -1 0 -1 -1 -1v0l-1 -1v1v0s-1 -1 -1 -2v2v0s-1 -1 0 -1l-2 -2c0 1 1 2 1 2h-2l2 1v0v0s1 1 1 0l1 1s0 1 1 2l-1 -1c2 0 2 4 3 5v0v0c0 -1 1 -1 1 -2c-1 0 -1 -4 -2 -5zM341 236c0 1 -1 -1 -1 -1
c-1 0 -1 1 -1 0c-1 0 -1 1 -1 0h1c-1 0 -1 -1 -1 -1v2h1v3c1 -1 0 -2 1 -2h1v0v0v-1v0zM341 243c-1 2 -1 -4 -1 -4s0 1 -1 1v-1v1v5l1 4v-3v-2zM343 239c0 0 -1 0 -1 -1c0 1 1 2 1 2v-1zM343 239c0 1 1 1 1 1zM347 245v1v-1zM354 275l1 1c1 -1 0 -1 -1 -1v0zM351 272v0l-1 1
s1 0 1 -1zM342 272h1l-1 -1v1zM341 272v0s1 -1 0 -1h1v1v0v-1v0s2 1 3 1c2 1 1 -1 2 -2v1v-1c0 1 2 1 2 2c1 -1 1 -1 1 0c0 -1 1 -1 1 -1c1 0 0 1 0 2c1 0 1 0 2 1c0 -1 1 -1 1 -1l2 -1c1 -1 2 -1 2 -2v1h1c0 -1 0 -1 1 -1c0 -1 -1 -1 0 -1h-1v-1v-1v0v0v0h-1c0 1 0 1 -1 1
c0 -1 -1 1 -1 1v-2s-1 -1 -1 -1h1c0 -1 1 -2 0 -3c0 1 -1 -1 -2 -1v0v0v-1c0 -1 -1 -1 -1 -2c0 0 0 1 -1 1c0 0 0 -1 -1 -2v1v-1c0 1 -1 0 -1 0v-3c0 1 1 0 0 0v-1h1c0 -1 -1 -1 -1 -1v-1v-1h-1v-2c0 -1 -1 -2 -1 -3c0 1 -2 7 -1 7c0 2 2 3 2 5c0 0 0 1 1 1c1 1 0 3 1 3h-1
s0 -2 0 -1c-1 -1 -1 -2 -1 -2v0h-1c1 0 1 1 1 1h-2c-1 -1 -1 -3 -1 -3v0c0 -1 -1 -1 -1 -2c0 1 -1 1 0 1c-1 1 0 1 -1 0c0 1 -1 1 -1 0c0 0 -1 0 -1 -1c0 1 -1 1 -1 1h-1v0c-1 0 -1 -4 -2 -4c0 -2 -7 -2 -7 -4h-4v-1c0 0 5 0 5 1h3c0 -1 1 -1 1 -1h1v0c0 2 2 0 2 0
s-1 -3 0 -3c0 0 -1 -3 -2 -3c0 -1 -1 -3 -1 -4c-1 0 -1 -2 -2 -2c0 0 -1 0 0 1c0 0 -1 0 -1 -1v1l-1 -2c-1 -1 -2 -3 -2 -3v0c0 -1 1 -3 1 -3l-2 -2v1v1c1 0 1 1 0 1c0 0 -1 0 0 1h-1h1c-1 0 0 1 -1 1v0c-1 0 -1 0 -1 -1h-1s0 1 1 1c-1 0 0 1 0 1c-1 1 -1 0 -2 -1
s-1 0 -1 -1v-2c1 0 1 1 1 1h2c0 -1 -2 -2 -2 -2s-1 0 -1 -1c0 0 1 -1 0 -1h1v-2h-1h1v-1l1 -1c-1 0 -1 -2 -2 -2c0 0 -1 -2 -2 -2c1 -1 0 -1 0 -1c-1 -1 -2 -2 -3 -2v0c0 -1 -2 -1 -2 -1c-1 0 -2 -1 -1 -1c-1 0 -1 0 -1 1v0c-1 0 -1 -1 -1 -1c-1 0 -1 -1 -1 -1
c-1 -2 0 -1 0 -3v-3c0 -2 -2 -2 -3 -2v-1v0v0l-1 -1v2v0v0c0 1 -1 1 -1 2v0v0c-1 0 -2 -3 -2 -4c0 0 1 -2 1 -3v-2c0 0 -2 -1 -1 0l-1 2c0 1 1 1 0 2v2c1 1 2 7 0 7c0 -1 0 -1 -1 -1c0 1 1 2 0 4v-1c0 1 -1 1 0 2c0 0 -1 1 -1 2c-1 -1 0 -1 -1 -2c0 0 -2 1 -2 0
c0 0 -1 -1 -1 -2c-1 1 -2 -1 -3 -1s-1 -1 -2 -1c0 -1 0 -1 -1 -1v-3c-1 -1 -2 -3 -3 -3c0 1 -1 2 -1 3c-1 0 0 3 0 3c0 2 -1 4 1 6c-1 0 0 1 0 1s-2 -2 -2 -1c-1 2 0 0 1 2c0 0 -3 0 -2 1l-1 1s0 1 -1 1h-1s-4 0 -4 1c-1 2 -3 0 -3 1c-1 1 -2 3 -2 4l-1 1v-1v0s-1 -2 0 -2
v-2h1v-1c0 -1 1 -1 1 -1c1 0 2 1 3 2c0 -1 -1 -2 0 -2v-1c1 0 1 -1 2 -1c-1 -1 -1 -1 -1 -2l-2 -1s-2 -1 -2 -2h-2c-1 -2 -5 -2 -6 -2c0 0 -3 0 -2 1v1c1 1 0 2 0 2v3h-1v2c1 1 0 3 0 4l-1 3c-1 -1 -1 1 -2 1c0 -1 1 -4 1 -5l1 -3s-1 -2 0 -3v-1v-2s3 -3 1 -4
c1 -1 2 -1 3 -1h4c-2 -2 -2 -5 -4 -6c-1 -1 -2 -1 -3 -2c-1 0 -2 0 -3 -1c0 0 -1 -2 -2 -2s-2 -1 -2 -2v-1c1 -1 0 -1 0 -2s0 -4 -1 -4c-1 -1 -2 -2 -4 -1c0 -1 -2 -2 -1 -2v-2l-1 -1h-2v0c0 -1 0 -2 -1 -1c1 -2 -4 -2 -4 -3c-2 0 -5 1 -6 1c0 1 1 4 -1 4v3v2v2s-1 1 -1 2
l1 1c0 1 1 3 2 2c0 2 0 2 1 3c-1 0 -1 3 -1 3c1 1 -1 3 -1 3v0c-1 1 0 2 0 2v0c1 0 1 3 1 3v1h-1c0 -1 -2 1 -2 1v1c-1 0 -1 1 -3 0c0 1 1 1 1 1c-1 0 -1 0 0 0h-1v0h-3c0 1 -3 1 -4 1c-1 1 -2 3 -2 4v0v1v-1c0 2 -1 3 -1 4l-1 1c0 1 1 2 0 2c2 0 3 6 3 6c0 1 1 2 2 2
c0 1 1 2 2 3c0 0 2 0 3 1s0 3 2 3c1 0 1 1 2 1c1 2 1 0 3 0v-1c1 1 2 1 3 1l4 -1c1 -1 2 0 2 0c0 -1 1 -1 1 -1l-1 -1v-1c-1 -1 0 -2 0 -2l2 -1c0 -2 2 -3 3 -3c1 -1 1 1 1 1c0 1 1 1 1 1l3 -2l2 -2h2v0c1 0 1 -1 3 0c0 1 0 2 1 3c0 0 0 2 1 2h-1s-2 -1 -2 0s-1 1 -1 1
c-1 -2 -2 1 -3 1c1 0 1 1 0 1v0h1v1c-1 1 0 1 1 1h1c1 1 -1 0 1 1c0 -1 1 0 1 0c1 0 2 -1 3 0c-1 -1 3 -3 4 -2c0 1 -1 -4 -2 -4c0 1 0 -7 0 -7h-1c1 0 1 8 1 8v4c1 0 1 2 0 3c1 0 2 1 2 1c-2 0 -3 1 -4 1c-1 -1 0 -1 0 -1h1v0c0 -1 -1 -1 -2 -1v1l1 1c-1 0 -1 0 -2 1h1h-1
s-1 0 -1 -1c-1 0 -1 0 -1 -1c0 1 -1 -1 -1 -1c-1 -1 0 -1 0 -2c-1 0 -2 -1 -2 -1c0 1 -1 1 -2 2v-1v0v0v0v0h-1v-1v0v-1c0 0 1 0 1 -1c0 0 0 1 -1 1c0 -1 1 0 0 -1v0v0h-1v0c-1 0 -1 1 0 1v0s-1 0 0 1h-1v1v0v2c0 0 0 2 -1 2l-1 1v2l-1 -1v2h-1c0 -1 -1 -2 0 -2
c0 0 1 -1 0 -1c1 0 1 -2 2 -2v0c0 -1 1 -2 1 -2h-1c-1 0 0 0 0 -1c-1 0 -1 -1 -2 -1c2 3 -2 4 -2 7c0 1 -2 1 -2 1c-1 -1 -3 2 -3 -1c-1 0 -2 -1 -3 -1v-1c0 -1 -1 -1 -1 -1c-1 -1 -2 0 -3 -1c-1 0 -1 1 -2 2h-1v2v0s2 3 1 3c1 0 1 1 1 1h1c0 1 1 0 1 0s3 -2 3 -1
c1 0 2 2 1 2c0 1 -1 1 0 2h-1h1c-1 0 -1 1 -1 0v1v0v0v1s2 -7 2 -8c0 1 0 -5 0 -5v0s2 7 3 7c0 0 0 4 1 4c0 0 0 1 1 1c-1 0 0 1 -1 2c0 0 1 -1 1 0v0c0 1 2 2 3 1h1v2c0 0 0 3 1 2c1 1 0 0 0 0v0v0h-1c1 1 2 1 3 1c-1 0 -1 -1 -1 -1v0v-10c-1 0 -1 -9 -1 -9h1
c-1 0 0 8 -1 8v5c0 -1 0 2 0 1v2v-1h1h1c-1 -1 3 0 4 -1c0 0 0 1 -1 0h1v0h1c-1 1 0 1 0 1v0c1 0 1 2 2 3v-1c1 -1 1 1 2 1h-1c0 1 0 1 1 1h3h1c1 1 -1 1 -1 1v1c-1 0 -1 -1 -2 -1l-2 2v-1s0 2 1 3v1h1l2 2v1h-2v0c-1 -1 -1 -2 -2 -2c-1 -1 -1 0 -1 -1c-1 0 -1 -1 -1 0
c-1 -1 -1 -2 -1 -3v0h1v-1s0 -1 -1 -1c1 0 -1 0 -1 0c0 -1 -1 -2 -1 -3v1v-1v0c-1 1 -2 -1 -3 0c1 1 1 1 0 2c0 0 0 2 1 2h-3s-1 0 -1 2v0v0s1 0 1 1h-1v0v1v0s1 -1 2 0h-2v1v0h1s-1 0 0 0c0 0 1 0 0 0h1v1v-1v1h1v0v0c1 0 0 0 1 1h-1h1v-1h1s1 0 1 1l-1 -1v1l1 1
c1 -1 1 -1 1 0c1 0 1 1 1 1c1 0 2 1 2 1v0v0v0v0v0c1 0 1 1 1 1h-1c0 0 3 1 1 1c0 0 0 1 1 1v-1v0v1c0 -1 -5 -1 -4 -1c0 1 -5 1 -5 1v-1c0 1 5 1 5 1h3c1 -1 2 0 2 0s1 0 1 -1v1v0v0s2 -1 2 0c0 0 0 -1 1 1v-1v0v-1l1 1v-1c1 1 0 2 1 1v0v-1v1v-1v1c1 0 1 -1 1 -1v0v0h-8
l-9 -1v0h9h5h2c0 -1 1 -1 1 -1l2 -1s3 -1 3 -2c-1 -1 1 -2 -1 -2c0 0 -2 0 -1 0c-1 0 -2 1 -2 1c-1 0 -1 1 -1 1v-1v0v0v0h1c-1 0 -1 0 -1 -1c2 0 1 -1 1 -3c0 0 1 0 2 -1v1c-1 1 0 1 0 2v-1c1 0 1 0 2 -1c0 1 -1 3 0 2c1 1 1 0 1 0c1 -1 2 3 2 3s1 0 1 -2c-1 1 -1 0 -1 -1
h1c1 1 1 1 1 2c1 -1 2 0 3 0h1v-1c-1 1 0 0 -1 0h1v0c0 1 2 1 2 0c0 1 1 1 1 1v-1c1 0 2 0 1 2c0 -1 1 0 1 0c1 -1 2 0 2 -2v1c0 -1 1 -2 1 -2c1 0 1 0 1 1v0v1h-1c0 1 0 1 1 2c-1 0 0 1 0 1c0 1 1 1 1 2c1 0 2 0 2 -1v-1v-3c0 0 -1 -1 0 -1v-1l-1 -2h-2c0 -1 1 -1 1 -1
c1 0 1 -1 1 -1v1c2 0 1 2 2 3c0 1 1 1 1 0c1 0 0 -2 1 -2h1v0h-1v2c-1 1 -1 1 -2 1v2v3c1 0 0 -3 1 -3h1v0c-1 0 -1 1 -1 2c1 0 1 -1 2 -1l-1 1c0 1 2 -1 3 -1c0 -1 -1 -2 -1 -3c0 0 0 1 1 1c0 -1 0 -1 1 -1c-2 1 1 3 -2 4v0v2h2c1 0 2 0 1 0c2 -1 0 1 1 1h-1v1
c1 0 1 0 1 -1v1v1h3h1s1 1 1 0v0v0c1 0 1 1 2 0l-1 1h1l1 -1c-1 1 0 2 0 2c1 0 2 1 2 -1c0 0 1 1 1 -1c0 1 2 1 2 1s2 -2 1 -2c0 0 1 0 1 -1h-1c-1 0 -1 -1 -2 -1c0 0 0 -1 -1 -1c0 -1 -1 -2 -1 -2s2 1 2 2l1 -1c-1 1 -1 1 0 2v0c0 -1 1 -1 1 0v-2c0 2 3 2 3 1l2 -1
c1 0 1 -8 1 -8v-8v0v8v4s-1 4 0 4c1 -1 1 1 1 0h-1h1h-1l1 -1v1v-1c1 0 1 0 1 -1v2c0 -1 1 -1 1 -1v0v-1v0h1v-1c1 0 1 3 1 3v-1h1h1c1 0 1 -1 1 0c0 -1 0 1 0 1c1 1 0 1 1 1v0h2v0v-1c0 0 0 1 1 1v-1v1c-1 0 -1 -2 -1 -2c1 0 1 2 1 2c1 0 2 0 1 -1zM351 258
c0 -1 -1 -1 -1 -1v-1c0 1 0 1 1 2zM337 249c0 0 -1 0 0 0v0zM245 244c-1 -1 -1 -1 -1 0h1c-1 -1 0 0 0 0zM249 244c0 -1 0 -2 -1 -3v2c0 1 1 1 1 1zM248 245c1 0 1 1 1 1v-2zM250 239c0 1 1 0 2 0v-1h-1zM256 238v0v0zM257 235h1c0 -1 1 -1 1 -1c-1 0 -1 0 -2 1zM263 233h1
h1c0 -1 -1 -1 -2 0zM260 238h1h-1v0zM256 259c0 -1 0 0 -1 -1v0v1v0v0v0h1v1v-1v0zM256 258h-1v0h1zM257 258h1h-1v0zM260 259c0 1 1 2 1 1v0c0 -1 -1 -1 -1 -1zM262 263c1 0 0 0 0 1c1 0 1 -1 1 -1h-1zM263 260c0 1 1 1 1 1c0 -1 -1 -1 -1 -1v0v0zM264 261v0v0v0v0z
M264 263v0h1v0h-1zM322 274v0v0zM341 278l-1 -1l-1 1c1 0 3 0 2 0zM337 274h-1l1 1c1 1 1 0 1 -1h-1zM338 277c-1 0 -1 1 -1 1c1 0 1 -1 1 -1zM256 485c-126 0 -229 -103 -229 -229s103 -229 229 -229s229 103 229 229s-103 229 -229 229zM256 63c-106 0 -193 87 -193 193
s87 193 193 193s193 -87 193 -193s-87 -193 -193 -193z" />
    <glyph glyph-name="qticons-chevron-light-left" unicode="&#xe01e;" 
d="M256 485c-126 0 -229 -103 -229 -229s103 -229 229 -229s229 103 229 229s-103 229 -229 229zM256 63c-106 0 -193 87 -193 193c0 107 87 193 193 193c107 0 193 -86 193 -193c0 -106 -87 -193 -193 -193zM295 352c-6 5 -15 5 -21 0l-85 -86c-6 -5 -6 -15 0 -20l85 -86
c3 -3 7 -4 11 -4c3 0 7 1 10 4c5 6 5 15 0 20l-76 76l76 76c5 5 5 14 0 20z" />
    <glyph glyph-name="qticons-chevron-light-down" unicode="&#xe01f;" 
d="M27 256c0 -126 103 -229 229 -229s229 103 229 229s-103 229 -229 229s-229 -103 -229 -229zM449 256c0 -106 -87 -193 -193 -193c-107 0 -193 87 -193 193c0 107 86 193 193 193c106 0 193 -86 193 -193zM160 295c-5 -6 -5 -15 0 -21l86 -85c5 -6 15 -6 20 0l86 85
c3 3 4 7 4 11c0 3 -1 7 -4 10c-6 5 -15 5 -20 0l-76 -76l-76 76c-5 5 -14 5 -20 0z" />
    <glyph glyph-name="qticons-chevron-left" unicode="&#xe020;" 
d="M256 484c-126 0 -229 -102 -229 -228s103 -229 229 -229s229 103 229 229s-103 228 -229 228zM256 63c-106 0 -193 87 -193 193c0 107 87 193 193 193c107 0 193 -86 193 -193c0 -106 -87 -193 -193 -193zM277 356l-100 -100l100 -100l29 29l-71 71l71 71z" />
    <glyph glyph-name="qticons-chevron-down" unicode="&#xe021;" 
d="M27 256c0 -126 103 -229 229 -229s229 103 229 229s-103 228 -229 228s-229 -102 -229 -228zM449 256c0 -107 -87 -193 -193 -193s-193 86 -193 193c0 106 87 193 193 193s193 -87 193 -193zM156 277l100 -100l100 100l-29 29l-71 -71l-71 71z" />
    <glyph glyph-name="qticons-checkmark-sign" unicode="&#xe022;" 
d="M256 485c-126 0 -229 -103 -229 -229s103 -229 229 -229s229 103 229 229s-103 229 -229 229zM256 63c-106 0 -193 87 -193 193c0 107 87 193 193 193c107 0 193 -86 193 -193c0 -106 -87 -193 -193 -193zM256 370c-63 0 -114 -51 -114 -114s51 -114 114 -114
s114 51 114 114s-51 114 -114 114zM242 199l-43 43l20 23l23 -23l64 71l21 -23z" />
    <glyph glyph-name="qticons-deviantart" unicode="&#xe023;" 
d="M256 485c-126 0 -229 -103 -229 -229s103 -229 229 -229s229 103 229 229s-103 229 -229 229zM256 63c-106 0 -193 87 -193 193s87 193 193 193s193 -87 193 -193s-87 -193 -193 -193zM274 278c-10 2 -21 3 -33 0l24 -55l105 34s-38 67 -151 46c-1 -1 -1 -1 -2 -1l-11 25
l-33 -4l14 -31c-69 -32 -39 -107 -39 -107l105 34l-28 66c51 17 94 -18 94 -18l-35 -11zM177 224c0 0 -10 25 19 47l16 -37z" />
    <glyph glyph-name="qticons-fire" unicode="&#xe024;" 
d="M256 485c-126 0 -229 -103 -229 -229s103 -229 229 -229s229 103 229 229s-103 229 -229 229zM256 63c-106 0 -193 87 -193 193s87 193 193 193s193 -87 193 -193s-87 -193 -193 -193zM234 370c0 0 85 -57 75 -135c0 0 28 7 21 54c0 0 41 -40 40 -76
c0 -29 -37 -71 -106 -71c0 0 62 55 -20 125c0 0 -76 -74 -26 -125c0 0 -100 25 -71 90c30 64 95 70 87 138z" />
    <glyph glyph-name="qticons-flickr" unicode="&#xe025;" 
d="M256 484c-126 0 -229 -102 -229 -228s103 -229 229 -229s229 103 229 229s-103 228 -229 228zM256 63c-106 0 -193 87 -193 193s87 193 193 193s193 -87 193 -193s-87 -193 -193 -193zM245 255c0 -33 -26 -59 -58 -59s-58 26 -58 59c0 32 26 58 58 58s58 -26 58 -58z
M383 257c0 -32 -26 -58 -58 -58s-58 26 -58 58c0 33 26 59 58 59s58 -26 58 -59z" />
    <glyph glyph-name="qticons-forrst" unicode="&#xe026;" 
d="M256 485c-126 0 -229 -103 -229 -229s103 -229 229 -229s229 103 229 229s-103 229 -229 229zM256 63c-106 0 -193 87 -193 193s87 193 193 193s193 -87 193 -193s-87 -193 -193 -193zM356 149l-96 218c-1 2 -3 3 -5 3c-1 0 -3 -1 -4 -3l-95 -218c0 -2 0 -3 1 -5
c1 -1 2 -2 4 -2h81v43l-29 14v14l29 -14v43h28v-29l29 14v-14l-29 -14v-14l43 28v-14l-43 -29v-28h81c2 0 3 1 4 2c1 2 1 3 1 5z" />
    <glyph glyph-name="qticons-forward" unicode="&#xe027;" 
d="M256 485c-126 0 -229 -103 -229 -229s103 -229 229 -229s229 103 229 229s-103 229 -229 229zM256 63c-106 0 -193 87 -193 193s87 193 193 193s193 -87 193 -193s-87 -193 -193 -193zM285 285c0 0 -57 0 -94 -24c-38 -24 -49 -76 -49 -76s36 38 70 51c36 14 73 6 73 6
v-43l85 57l-85 71v-42z" />
    <glyph glyph-name="qticons-dribbble" unicode="&#xe028;" 
d="M256 485c-126 0 -229 -103 -229 -229s103 -229 229 -229s229 103 229 229s-103 229 -229 229zM256 63c-106 0 -193 87 -193 193s87 193 193 193s193 -87 193 -193s-87 -193 -193 -193zM256 370c-63 0 -114 -51 -114 -114s51 -114 114 -114s114 51 114 114
s-51 114 -114 114zM326 311c11 -14 18 -32 19 -51c-13 3 -36 4 -36 4h-1c-9 0 -17 -1 -25 -2c-2 5 -4 9 -6 14c18 8 35 19 49 35zM256 345c21 0 40 -7 56 -19c-12 -14 -28 -25 -44 -32c-12 23 -23 39 -31 49c6 1 13 2 19 2zM217 336c6 -7 18 -24 31 -49
c-26 -8 -54 -10 -70 -10h-1c-3 0 -5 1 -7 1c6 25 23 46 47 58zM167 256v1h10c18 0 49 2 81 12c1 -4 3 -8 5 -12c-21 -7 -38 -18 -50 -30c-12 -11 -20 -21 -25 -28c-13 15 -21 35 -21 57zM256 167c-20 0 -38 6 -53 17c3 6 10 16 21 26c11 11 26 21 46 28c7 -19 13 -41 18 -65
c-10 -4 -21 -6 -32 -6zM306 183c-4 22 -10 42 -16 60c6 0 19 1 19 1c10 0 22 -1 35 -4c-5 -24 -18 -44 -38 -57z" />
    <glyph glyph-name="qticons-digg" unicode="&#xe029;" 
d="M256 485c-126 0 -229 -103 -229 -229s103 -229 229 -229s229 103 229 229s-103 229 -229 229zM256 63c-107 0 -193 87 -193 193s86 193 193 193c106 0 193 -87 193 -193s-87 -193 -193 -193zM282 281h37c7 0 13 6 13 13v38c0 7 -6 13 -13 13h-37c-7 0 -13 -6 -13 -13v-38
c0 -7 6 -13 13 -13zM181 321c-40 0 -39 -25 -39 -25v-40c0 -11 12 -13 12 -13h13v-39c-14 -2 -25 -9 -25 -18c0 -11 20 -19 38 -19c17 0 37 8 37 18c0 9 -10 17 -24 19v39h12c12 0 13 13 13 13v40c0 25 -37 25 -37 25zM369 295c0 12 -12 12 -12 12h-12v-33c0 -8 -6 -6 -6 -6
h-78c-6 0 -6 6 -6 6v32l-12 1c-14 0 -12 -13 -12 -13v-25s-2 -13 11 -13h14v-77c0 -13 12 -11 12 -11h14c13 0 12 12 12 12v38c0 7 7 9 7 9c3 0 5 -9 5 -9v-38c0 -13 18 -13 18 -13h7c12 0 13 12 13 12l1 77h11c13 0 14 14 14 14z" />
    <glyph glyph-name="qticons-instagram" unicode="&#xe02a;" 
d="M256 485c-126 0 -229 -103 -229 -229s103 -229 229 -229s229 103 229 229s-103 229 -229 229zM256 63c-107 0 -193 87 -193 193s86 193 193 193c106 0 193 -87 193 -193s-87 -193 -193 -193zM320 360h-128c-22 0 -40 -18 -40 -40v-25h56c11 15 28 24 48 24s37 -9 48 -24
h56v25c0 22 -18 40 -40 40zM342 315c0 -4 -4 -7 -8 -7h-24c-4 0 -7 3 -7 7v24c0 5 3 8 7 8h24c4 0 8 -3 8 -8v-24zM316 260c0 -33 -27 -60 -60 -60s-60 27 -60 60c0 7 2 14 4 21h-48v-89c0 -22 18 -40 40 -40h128c22 0 40 18 40 40v89h-48c2 -7 4 -14 4 -21zM256 216
c24 0 44 19 44 44c0 7 -2 14 -6 21c-3 5 -7 10 -13 14c-7 5 -16 8 -25 8s-18 -3 -25 -8c-6 -4 -10 -9 -13 -14c-4 -7 -6 -14 -6 -21c0 -25 20 -44 44 -44z" />
    <glyph glyph-name="qticons-arrow-move-up" unicode="^" 
d="M485 256c0 126 -103 229 -229 229s-229 -103 -229 -229s103 -229 229 -229s229 103 229 229zM63 256c0 106 87 193 193 193s193 -87 193 -193c0 -107 -87 -193 -193 -193s-193 86 -193 193zM227 156h58v-14h-58v14zM227 185h58v-15h-58v15zM227 213h58v-14h-58v14z
M313 313l-57 57l-57 -57h28v-57h58v57h28zM227 242h58v-15h-58v15z" />
    <glyph glyph-name="qticons-hearthis" unicode="&#xe02b;" 
d="M485 256c0 126 -103 228 -229 228s-228 -102 -228 -228s102 -229 228 -229s229 103 229 229zM63 256c0 106 86 193 193 193c106 0 193 -87 193 -193c0 -107 -87 -193 -193 -193c-107 0 -193 87 -193 193zM403 270v-17c0 -1 0 -2 -1 -3c0 -6 -1 -11 -2 -17
c-6 -30 -20 -56 -42 -78c-22 -21 -48 -34 -78 -38l-15 -3h-18c-1 1 -2 1 -2 1c-6 1 -12 1 -17 2c-31 6 -57 21 -78 43s-34 48 -39 77c-1 5 -1 11 -2 16v17c0 1 0 2 1 3c0 6 1 11 2 17c6 30 20 56 42 78c22 20 48 33 78 38c5 1 10 2 15 2h18h2c6 -1 12 -1 17 -2
c31 -6 57 -21 78 -43s34 -48 39 -78c1 -5 1 -10 2 -15zM204 345h-7c-2 -1 -5 -2 -6 -3c-4 -6 -5 -12 -3 -18c0 -3 2 -4 4 -4c15 -1 29 -4 42 -9c22 -8 41 -21 56 -40c17 -22 25 -48 26 -76c0 -4 2 -5 6 -6c5 0 10 2 14 4c3 2 5 5 5 8v13c-3 18 -7 37 -15 54
c-9 20 -21 37 -40 49c-13 9 -28 15 -44 20c-12 4 -25 7 -38 8zM195 294h-4c-3 0 -5 -1 -6 -4c-2 -3 -3 -6 -2 -10c0 -2 2 -4 4 -4c9 0 17 -2 26 -5c21 -7 39 -20 50 -40c6 -13 10 -27 11 -42c0 -3 1 -4 4 -4h3c8 2 10 5 10 12c-1 16 -5 31 -12 46c-5 10 -11 19 -20 26
c-19 15 -41 21 -64 25z" />
    <glyph glyph-name="qticons-itunes" unicode="&#xe016;" 
d="M256 485c-126 0 -229 -103 -229 -229s103 -229 229 -229s229 103 229 229s-103 229 -229 229zM256 63c-106 0 -193 87 -193 193s87 193 193 193s193 -87 193 -193s-87 -193 -193 -193zM257 307h2h1c13 1 24 6 32 14c7 9 10 21 10 36v2c-1 0 -2 1 -3 1h-4h-1
c-10 -4 -19 -9 -26 -16c-7 -8 -12 -18 -12 -33v-1c0 -1 1 -2 1 -3zM343 209c-1 0 -2 1 -3 1c-7 2 -13 7 -18 14c-4 7 -6 16 -6 24s2 15 5 21s7 10 14 13c1 0 1 1 2 2c0 1 0 2 -1 3c-5 6 -10 11 -16 15c-7 4 -14 6 -23 6h-1c-7 0 -14 -2 -20 -4c-6 -3 -11 -5 -17 -5
c-7 0 -12 2 -18 5c-5 2 -11 4 -19 4h-4c-13 -1 -25 -8 -33 -18c-9 -9 -14 -22 -16 -36v-8c0 -18 5 -35 12 -51c7 -15 16 -27 25 -35c2 -1 4 -3 7 -5l9 -3h4v0c7 0 12 2 16 4s7 4 12 4c2 0 3 1 5 1c6 0 10 -2 15 -4c4 -2 9 -4 15 -5h3c10 0 18 5 23 10c12 11 20 29 28 44v3z
" />
    <glyph glyph-name="qticons-itunespodcast" unicode="&#xe02c;" 
d="M485 256c0 126 -103 228 -229 228s-228 -102 -228 -228s102 -229 228 -229s229 103 229 229zM63 256c0 106 86 193 193 193c106 0 193 -87 193 -193c0 -107 -87 -193 -193 -193c-107 0 -193 87 -193 193zM405 251c-2 -8 -3 -15 -5 -23c-7 -29 -22 -54 -45 -75
c-6 4 -12 9 -19 13c32 29 48 64 45 107c-3 33 -17 61 -41 83c-51 45 -129 42 -176 -9c-46 -49 -46 -130 12 -181c-6 -4 -12 -8 -19 -13c-14 12 -25 26 -33 43c-8 15 -13 32 -15 50c0 2 -1 4 -2 6v22c1 2 2 4 2 6c7 60 50 110 108 125c10 3 20 4 30 6h18c2 0 4 -1 6 -1
c60 -6 111 -49 127 -107c3 -9 5 -19 7 -29v-23zM205 229c-7 -5 -13 -10 -19 -14c-26 26 -35 83 4 123c36 38 97 38 133 0c38 -41 28 -98 3 -123c-6 4 -12 9 -19 14c14 17 20 36 16 58c-3 17 -12 30 -25 41c-27 20 -65 18 -89 -5c-21 -20 -33 -59 -4 -94zM222 206
c-5 21 11 34 31 32c6 0 12 0 17 -1c14 -2 22 -12 21 -26c-3 -26 -5 -53 -7 -79c0 -3 -1 -7 -1 -10c-3 -12 -13 -21 -25 -21c-15 -1 -26 6 -29 20c-2 13 -2 26 -4 39c-1 15 -2 30 -3 46zM256 248c-19 0 -35 15 -35 35c0 19 15 34 34 34c20 1 36 -15 36 -34s-15 -35 -35 -35z
" />
    <glyph glyph-name="qticons-spotify" unicode="&#xe02d;" 
d="M485 256c0 126 -103 228 -229 228s-228 -102 -228 -228s102 -229 228 -229s229 103 229 229zM63 256c0 106 86 193 193 193c106 0 193 -87 193 -193c0 -107 -87 -193 -193 -193c-107 0 -193 87 -193 193zM404 260c1 -78 -64 -147 -149 -146c-83 0 -147 70 -147 149
c1 83 71 147 150 146c73 0 146 -59 146 -149zM235 331v0c-16 -2 -32 -2 -48 -5c-9 -1 -17 -3 -25 -6c-6 -2 -8 -8 -7 -14c1 -7 6 -11 12 -10c3 0 6 0 9 1c16 4 31 6 47 7c21 0 41 -1 61 -5c18 -3 35 -8 51 -17c4 -1 7 -3 11 -4c6 -3 13 0 16 5c3 6 2 13 -3 17
c-4 3 -8 5 -13 7c-35 16 -72 24 -111 24zM165 261c0 -7 4 -12 13 -11c12 2 25 5 37 6c18 3 36 1 54 -2c20 -4 39 -11 57 -21c6 -3 13 -1 15 3c3 4 2 11 -3 15c-3 3 -6 5 -10 7c-26 13 -53 19 -82 21c-16 2 -32 1 -48 -2c-9 -1 -17 -3 -25 -6c-6 -2 -8 -5 -8 -10zM234 233
c-13 -2 -26 -3 -39 -5c-6 0 -13 -2 -19 -4c-4 -1 -6 -5 -5 -10c1 -4 4 -6 9 -6c4 0 8 1 12 2c19 3 39 5 58 3c18 -1 35 -6 51 -14c4 -2 8 -4 13 -6s10 2 11 8c0 4 -2 7 -6 9c-27 14 -55 22 -85 23z" />
    <glyph glyph-name="qticons-play" unicode="&#x26;" 
d="M256 485c-126 0 -229 -103 -229 -229s103 -229 229 -229s229 103 229 229s-103 229 -229 229zM256 63c-106 0 -193 87 -193 193s87 193 193 193c107 0 193 -87 193 -193s-87 -193 -193 -193zM199 185l143 71l-143 71v-142z" />
    <glyph glyph-name="qticons-500px" unicode="&#xe02e;" 
d="M256 485c-126 0 -229 -103 -229 -229s103 -228 229 -228s229 102 229 228s-103 229 -229 229zM256 63c-106 0 -193 87 -193 193s87 193 193 193s193 -87 193 -193s-87 -193 -193 -193zM289 288c3 0 6 -1 9 -2c19 -6 31 -25 30 -45c-1 -19 -16 -36 -36 -40
c-24 -4 -48 12 -52 37c-3 23 13 46 36 50h3h10zM284 209c20 0 35 16 36 35c0 20 -16 36 -36 36c-19 0 -35 -16 -35 -35c0 -20 16 -36 35 -36zM193 288c1 0 3 0 5 -1c20 -4 35 -24 34 -45c-2 -25 -22 -43 -47 -41c-22 1 -40 19 -41 41c-1 23 15 43 38 46h1h10zM188 209
c19 0 35 16 35 35c0 20 -16 36 -35 36c-20 0 -36 -16 -36 -36c0 -19 16 -35 36 -35zM364 288c2 0 5 -1 8 -2c9 -5 14 -14 12 -24s-10 -18 -20 -19h-5s-2 1 -2 2v3c0 2 1 3 3 3c5 0 10 1 13 6c4 5 4 11 1 16c-3 6 -9 8 -15 7s-11 -5 -12 -11v-5v-38c0 -2 -1 -3 -3 -3h-1
c-4 0 -4 1 -4 4v37c0 10 4 18 13 22c2 1 5 2 7 2h5zM435 247l-3 -3s-2 -1 -4 0c-5 6 -10 11 -16 16l-1 -1l-15 -15c-1 -1 -2 -1 -4 1s-3 3 -1 5c5 4 10 9 14 14c1 0 1 1 2 1c-5 6 -10 11 -15 15c-3 3 -2 6 1 7c2 1 2 1 3 0c5 -6 11 -11 16 -16v0c1 0 1 0 1 1c5 5 10 9 15 14
c2 2 3 2 5 0c1 0 1 -1 2 -2v-2h-1l-16 -16v-1l17 -17v-1zM87 279v-23c1 0 1 1 2 1c19 13 45 2 49 -22c2 -18 -12 -34 -31 -34c-13 0 -24 7 -29 19c-1 2 -1 3 2 4c0 1 1 1 1 1c3 1 4 0 5 -2c4 -9 12 -14 22 -14c8 0 17 6 20 14c3 9 1 19 -7 26c-8 6 -17 7 -26 1
c-3 -2 -5 -4 -8 -7c-1 -1 -3 -2 -5 -1s-3 2 -3 4v37c0 3 1 4 5 4h42c3 0 3 0 4 -2v-1c0 -5 -1 -5 -5 -5h-36h-2z" />
    <glyph glyph-name="qticons-snapchat" unicode="&#xe02f;" 
d="M256 485c-126 0 -229 -103 -229 -229s103 -228 229 -228s229 102 229 228s-103 229 -229 229zM256 63c-106 0 -193 87 -193 193s87 193 193 193s193 -87 193 -193s-87 -193 -193 -193zM418 185c-1 4 -5 11 -15 13c-5 2 -10 3 -15 5c-10 5 -19 12 -27 24c-4 5 -7 10 -9 14
c3 1 5 2 7 3c5 2 12 4 17 8c8 5 12 13 12 21c0 7 -3 14 -10 19s-15 7 -23 5c-2 0 -3 -1 -5 -1c0 5 1 10 1 15c0 6 0 12 -1 18c0 4 0 7 -1 11c-2 10 -6 19 -10 25c-5 10 -13 18 -21 25c-16 12 -36 19 -61 20c-3 0 -7 -1 -11 -1h-3c-10 -1 -19 -3 -29 -8
c-14 -6 -26 -15 -35 -27c-11 -14 -17 -30 -18 -47v-26l1 -5c-11 3 -20 2 -29 -5c-5 -4 -9 -10 -9 -16c-1 -7 1 -13 6 -18c7 -7 15 -10 22 -13c2 -1 5 -1 7 -3c-1 -2 -2 -5 -3 -7c-6 -10 -13 -18 -21 -24s-16 -10 -25 -12c-6 -1 -11 -4 -14 -9c-3 -4 -3 -10 -2 -16
c3 -10 11 -14 14 -16c9 -4 18 -7 28 -8c0 -2 1 -3 1 -5c5 -16 18 -17 22 -16l7 1c4 0 8 1 12 1h3h9c3 -1 6 -3 10 -6l7 -4c4 -3 8 -5 12 -8c8 -5 17 -8 28 -9c3 -1 6 -1 9 -1c5 0 10 1 15 2c10 1 19 5 28 12l4 3c5 3 9 6 14 8c4 3 10 4 16 3c3 0 6 0 9 -1c3 0 7 -1 10 -1h3
c10 0 18 6 20 17c0 1 0 2 1 4c6 1 14 3 21 5c5 2 12 5 17 12c6 8 5 15 4 19zM184 218c2 5 5 10 7 15c4 12 2 23 -7 31c3 1 6 3 7 5c3 3 4 8 4 12l-1 9v12l-1 18c0 7 1 13 3 19c1 4 4 9 8 14c5 7 11 13 18 16c6 4 12 6 18 7c4 1 9 1 15 1h4c8 0 17 -1 25 -5c5 -2 10 -5 15 -9
c6 -5 12 -12 16 -22c2 -3 2 -7 3 -12c0 -5 1 -11 1 -16s-1 -11 -1 -16v-4c0 -3 -1 -6 -1 -9v-3c-1 -6 2 -12 7 -15c1 -1 2 -2 4 -2c-8 -8 -11 -19 -8 -29c3 -9 8 -17 12 -24c5 -8 12 -16 20 -23l12 -9h-1c-8 -1 -14 -6 -16 -14l-1 -4c-5 1 -9 1 -13 2h-4
c-13 0 -26 -4 -37 -13l-18 -12c-5 -2 -10 -3 -17 -3h-1c-5 0 -10 0 -14 2c-5 2 -10 5 -15 8l-3 3c-6 4 -12 8 -20 11c-4 2 -9 3 -13 3c-3 1 -6 1 -9 1h-4c-4 -1 -8 -1 -12 -2c-2 11 -7 16 -18 18c2 2 4 3 6 5c12 9 22 20 30 34z" />
    <glyph glyph-name="qticons-twitch" unicode="&#xe030;" 
d="M256 484c-126 0 -229 -102 -229 -228s103 -229 229 -229s229 103 229 229s-103 228 -229 228zM256 63c-106 0 -193 87 -193 193s87 193 193 193s193 -87 193 -193s-87 -193 -193 -193zM383 267v0c-1 -2 -1 -4 -1 -6v-39c0 -1 0 -3 1 -5v-1c-2 -2 -3 -4 -4 -5l-65 -65
c-2 -1 -5 -3 -8 -3h-36c-5 0 -8 -1 -12 -5l-23 -23c-2 -2 -5 -3 -8 -3h-29h-5v26c0 4 -1 5 -5 5h-53h-5v6c0 54 0 107 -1 161c0 9 2 18 5 27c3 10 7 20 10 30c1 3 3 5 7 5h225h6v-6v-93c0 -2 0 -4 1 -6zM224 150l4 4c8 8 16 16 25 24c2 2 5 3 7 4h56c2 0 5 1 6 3
c12 11 23 22 34 33c2 2 3 5 3 8v117c0 5 -1 6 -5 6h-180c-5 0 -6 -1 -6 -6v-157c0 -4 1 -5 5 -5h25h25c0 -8 1 -17 1 -25v-6zM255 265v-31c0 -3 -1 -4 -4 -4c-4 1 -9 1 -14 0c-3 0 -4 1 -4 4v62c0 3 1 4 4 4h14s4 -1 4 -4v-31zM318 265v-31c0 -3 -1 -4 -4 -4h-14
c-3 0 -4 1 -4 3v64c0 1 2 3 3 3h16c3 0 3 -2 3 -4v-31z" />
    <glyph glyph-name="qticons-snapchat-1" unicode="&#xe031;" 
d="M256 484c-126 0 -229 -102 -229 -228s103 -229 229 -229s229 103 229 229s-103 228 -229 228zM256 63c-106 0 -193 87 -193 193s87 193 193 193s193 -87 193 -193s-87 -193 -193 -193zM410 171c0 1 -1 1 -1 2c-3 1 -6 1 -9 2c-16 6 -28 14 -39 26c-9 10 -16 20 -21 31
c-3 7 -4 13 1 20c4 6 10 8 16 10c6 3 12 6 17 9c3 1 5 4 2 6c-4 2 -8 4 -12 2c-2 -2 -5 -2 -8 -3c-6 -2 -12 -2 -18 2c-1 0 -3 2 -3 3c0 5 1 10 1 16c0 14 1 27 0 41c-2 20 -13 35 -29 47c-22 16 -46 18 -72 13c-29 -6 -56 -33 -59 -61c-1 -18 0 -35 1 -53c1 -4 -1 -7 -5 -8
c-2 -1 -5 -2 -7 -1c-6 1 -12 2 -19 4c-3 1 -9 -1 -10 -3c-1 -4 2 -6 5 -8c6 -2 12 -4 18 -7c15 -5 20 -16 12 -31c-7 -15 -16 -27 -28 -38c-10 -8 -21 -14 -33 -17c-2 -1 -5 -2 -8 -3c3 -1 4 -2 5 -3c11 -3 21 -6 32 -9c3 -1 6 -2 7 -6c1 -5 3 -10 4 -15c5 1 10 2 14 3
c12 0 24 1 35 -4c8 -5 16 -10 23 -15c17 -12 35 -15 54 -8c8 4 16 9 24 14c12 9 26 14 41 13c6 -1 12 -1 18 -2c3 0 5 0 5 4c0 3 2 6 3 10c1 3 3 6 7 6c6 1 13 2 19 4s11 5 17 7z" />
    <glyph glyph-name="qticons-tunein" unicode="&#xe032;" 
d="M27 256c0 -126 103 -229 229 -229s229 103 229 229s-103 229 -229 229s-229 -103 -229 -229zM449 256c0 -107 -87 -193 -193 -193s-193 86 -193 193c0 106 87 193 193 193s193 -87 193 -193zM195 289c19 0 37 0 56 1c21 1 43 -14 44 -42v-32c0 -6 -3 -8 -8 -8h-119
c-30 0 -45 23 -43 45v28c-1 6 1 9 8 9c21 -1 41 -1 62 -1zM254 304c-25 0 -46 21 -46 46c0 26 21 47 47 47s46 -21 45 -47c0 -26 -20 -46 -46 -46zM214 156v33c0 5 2 8 7 8c22 -1 44 -1 66 -1c5 0 8 -1 8 -6c0 -13 0 -27 -1 -40c-2 -20 -17 -33 -37 -35h-36c-6 0 -7 2 -7 8
v33zM361 290h20c2 -1 6 -3 6 -5c0 -14 1 -28 0 -42c-3 -21 -20 -34 -43 -35h-30c-6 0 -8 2 -8 8c1 10 1 21 0 31c-1 24 19 43 40 43c5 -1 10 0 15 0v0z" />
    <glyph glyph-name="qticons-vk" unicode="&#xe033;" 
d="M27 256c0 -126 103 -229 229 -229s229 103 229 229s-103 229 -229 229s-229 -103 -229 -229zM449 256c0 -107 -87 -193 -193 -193s-193 86 -193 193c0 106 87 193 193 193s193 -87 193 -193zM396 315v-4c-2 -5 -3 -9 -6 -14c-7 -14 -17 -27 -27 -40
c-5 -6 -10 -13 -14 -20c-3 -4 -3 -9 0 -13c2 -3 5 -5 7 -8c8 -8 17 -16 25 -25c7 -7 14 -15 15 -25v-1c-1 -5 -4 -7 -9 -8c-3 0 -6 0 -8 -1h-36c-6 0 -11 1 -17 4c-7 3 -12 8 -17 14s-11 12 -17 18c-7 7 -13 5 -17 -3c-1 0 -1 -1 -1 -2c-3 -6 -3 -12 -4 -19
c0 -8 -3 -11 -12 -11c-6 0 -13 -1 -20 0c-4 0 -9 0 -14 1c-19 4 -36 14 -51 27c-12 10 -22 24 -31 38c-19 27 -34 56 -47 86c-1 1 -1 2 -1 3c-1 4 0 6 4 8c2 0 5 1 7 1h38c9 0 12 -2 16 -11c8 -18 16 -35 27 -52c3 -5 7 -10 13 -13c4 -2 7 -1 9 3l3 6c0 5 1 10 2 15
c0 11 0 23 -2 34c-2 6 -5 10 -11 12c-1 0 -3 1 -4 1c-2 0 -2 1 -1 3c2 3 6 6 10 7c6 1 12 2 18 2c12 1 24 1 36 -1c7 -2 10 -4 12 -12v-3v-23c0 -10 -1 -20 -1 -31c1 -3 2 -7 4 -11c2 -3 5 -4 9 -1l7 7c7 9 13 18 19 28c5 10 10 21 15 32c3 6 5 7 11 7h3c15 0 31 1 46 1
c5 0 10 0 12 -6z" />
    <glyph glyph-name="qticons-whatsapp" unicode="&#xe034;" 
d="M256 485c-126 0 -229 -103 -229 -229s103 -229 229 -229s229 103 229 229s-103 229 -229 229zM256 63c-106 0 -193 87 -193 193s87 193 193 193s193 -87 193 -193s-87 -193 -193 -193zM347 348c-24 24 -56 37 -90 37c-71 0 -128 -57 -128 -128c0 -22 5 -44 17 -64
l-19 -66l68 18c19 -11 40 -16 62 -16v0c70 0 128 57 128 128c0 34 -14 66 -38 91zM257 151v0c-20 0 -38 5 -55 15l-4 2l-40 -11l11 39l-3 5c-10 16 -16 36 -16 56c0 59 48 107 107 107c28 0 55 -12 75 -32s31 -47 31 -75c0 -59 -48 -106 -106 -106zM315 230
c-3 2 -19 10 -22 11s-5 1 -7 -2s-8 -10 -10 -12s-4 -3 -7 -1c-3 1 -14 5 -26 16c-9 8 -16 19 -18 22s0 5 2 6c1 2 3 4 4 6c2 2 3 3 4 5s0 4 -1 6c0 2 -7 17 -9 24c-3 6 -6 5 -8 5h-6s-5 -1 -8 -4s-12 -11 -12 -26c0 -16 12 -31 14 -34c1 -2 22 -34 54 -48c8 -3 14 -5 18 -7
c8 -2 15 -2 21 -1s18 8 21 15c3 8 3 14 2 16c-1 1 -3 2 -6 3z" />
    <glyph glyph-name="qticons-youtube" unicode="n" 
d="M259 482c-126 0 -229 -102 -229 -228s103 -229 229 -229s228 103 228 229s-102 228 -228 228zM259 61c-107 0 -193 86 -193 193c0 106 86 193 193 193c106 0 193 -87 193 -193c0 -107 -87 -193 -193 -193zM391 320c-3 12 -12 22 -24 25c-22 6 -108 6 -108 6
s-87 0 -108 -6c-12 -3 -22 -13 -25 -25c-6 -21 -6 -66 -6 -66s0 -45 6 -67c3 -12 13 -21 25 -24c21 -6 108 -6 108 -6s86 0 108 6c12 3 21 12 24 24c6 22 6 67 6 67s0 45 -6 66zM231 212v83l72 -41z" />
  </font>
</defs>
</svg>
